SplineFontDB: 3.2
FontName: Vazir
FullName: Vazir
FamilyName: Vazir
Weight: Regular
Copyright: Copyright (c) 2003 by Bitstream, Inc. All Rights Reserved.\nDejaVu changes are in public domain\nChanges by Saber Rastikerdar are in public domain.
Version: 26.0.1
ItalicAngle: 0
UnderlinePosition: -500
UnderlineWidth: 100
Ascent: 1638
Descent: 410
InvalidEm: 0
LayerCount: 2
Layer: 0 0 "Back" 1
Layer: 1 0 "Fore" 0
PreferredKerning: 4
XUID: [1021 502 1027637223 1743011]
UniqueID: 4038503
UseUniqueID: 1
FSType: 0
OS2Version: 1
OS2_WeightWidthSlopeOnly: 0
OS2_UseTypoMetrics: 1
CreationTime: 1431850356
ModificationTime: 1589449018
PfmFamily: 33
TTFWeight: 400
TTFWidth: 5
LineGap: 0
VLineGap: 0
Panose: 2 11 6 3 3 8 4 2 2 4
OS2TypoAscent: 2100
OS2TypoAOffset: 0
OS2TypoDescent: -1100
OS2TypoDOffset: 0
OS2TypoLinegap: 0
OS2WinAscent: 2100
OS2WinAOffset: 0
OS2WinDescent: 1100
OS2WinDOffset: 0
HheadAscent: 2100
HheadAOffset: 0
HheadDescent: -1100
HheadDOffset: 0
OS2SubXSize: 1331
OS2SubYSize: 1433
OS2SubXOff: 0
OS2SubYOff: 286
OS2SupXSize: 1331
OS2SupYSize: 1433
OS2SupXOff: 0
OS2SupYOff: 983
OS2StrikeYSize: 102
OS2StrikeYPos: 530
OS2CapHeight: 1638
OS2XHeight: 1082
OS2Vendor: '    '
OS2CodePages: 00000041.20080000
OS2UnicodeRanges: 80002003.80000000.00000008.00000000
Lookup: 1 9 0 "Single Substitution 0" { "Single Substitution 0 subtable"  } []
Lookup: 1 9 0 "'fina' Terminal Forms in Arabic lookup 1" { "'fina' Terminal Forms in Arabic lookup 1 subtable"  } ['fina' ('DFLT' <'dflt' > 'arab' <'FAR ' 'KUR ' 'URD ' 'dflt' > ) ]
Lookup: 1 9 0 "'medi' Medial Forms in Arabic lookup 2" { "'medi' Medial Forms in Arabic lookup 2 subtable"  } ['medi' ('DFLT' <'dflt' > 'arab' <'FAR ' 'KUR ' 'URD ' 'dflt' > ) ]
Lookup: 1 9 0 "'init' Initial Forms in Arabic lookup 3" { "'init' Initial Forms in Arabic lookup 3 subtable"  } ['init' ('DFLT' <'dflt' > 'arab' <'FAR ' 'KUR ' 'URD ' 'dflt' > ) ]

StartChar: exclam
Encoding: 33 33 1
GlifName: exclam
Width: 632
VWidth: 2762
GlyphClass: 2
Flags: HW
LayerCount: 2
Fore
SplineSet
183 134 m 0
 183 207 243 268 316 268 c 0
 389 268 449 207 449 134 c 0
 449 61 389 1 316 1 c 0
 242 1 183 58 183 134 c 0
221 1356 m 5
 415 1356 l 5
 400 432 l 1
 237 432 l 1
 221 1356 l 5
EndSplineSet
Validated: 1
EndChar

StartChar: period
Encoding: 46 46 2
GlifName: period
Width: 632
VWidth: 2762
GlyphClass: 2
Flags: HW
LayerCount: 2
Fore
SplineSet
183 134 m 4
 183 207 243 268 316 268 c 4
 389 268 449 207 449 134 c 4
 449 61 389 1 316 1 c 4
 242 1 183 58 183 134 c 4
EndSplineSet
Validated: 1
EndChar

StartChar: colon
Encoding: 58 58 3
GlifName: colon
Width: 632
VWidth: 2762
GlyphClass: 2
Flags: HW
LayerCount: 2
Fore
SplineSet
183 754 m 4
 183 827 243 888 316 888 c 4
 389 888 449 827 449 754 c 4
 449 681 389 621 316 621 c 4
 242 621 183 678 183 754 c 4
183 134 m 4
 183 207 243 268 316 268 c 4
 389 268 449 207 449 134 c 4
 449 61 389 1 316 1 c 4
 242 1 183 58 183 134 c 4
EndSplineSet
Validated: 1
EndChar

StartChar: uni060C
Encoding: 1548 1548 5
GlifName: afii57388
Width: 669
VWidth: 2770
GlyphClass: 2
Flags: HW
LayerCount: 2
Fore
SplineSet
503 573 m 5
 403 482 341 403 341 277 c 5
 442 277 476 230 476 143 c 4
 476 56 429 1 341 1 c 4
 229 1 183 69 183 175 c 4
 183 368 283 519 429 632 c 5
 503 573 l 5
EndSplineSet
EndChar

StartChar: uni0615
Encoding: 1557 1557 6
GlifName: uni0615
Width: 0
VWidth: 2712
GlyphClass: 4
Flags: HW
AnchorPoint: "Anchor-10" 438.449 1190.96 mark 0
AnchorPoint: "Anchor-9" 438.449 1190.96 mark 0
AnchorPoint: "Anchor-1" 436.616 1958.36 basemark 0
AnchorPoint: "Anchor-1" 438.449 1190.96 mark 0
LayerCount: 2
Fore
SplineSet
400.5 1365 m 6
 581.5 1365 673.5 1403 673.5 1481 c 4
 673.5 1535.5 634 1577 576 1577 c 4
 499 1577 415.5 1503 326.5 1364.5 c 5
 400.5 1365 l 6
236 1364 m 5
 248 1383.5 260.5 1403 272.5 1422 c 5
 272.5 1897 l 5
 357 1897 l 5
 357 1542 l 5
 423.5 1624 494 1667.5 571.5 1667.5 c 4
 685 1667.5 762.5 1590.5 762.5 1485 c 4
 761.5 1344.5 642 1274 402.5 1274 c 6
 125 1274 l 5
 125 1364 l 5
 236 1364 l 5
EndSplineSet
EndChar

StartChar: uni061B
Encoding: 1563 1563 7
GlifName: uni061B_
Width: 669
VWidth: 2770
GlyphClass: 2
Flags: HW
LayerCount: 2
Fore
SplineSet
211 134 m 0
 211 207 271 268 344 268 c 0
 417 268 477 207 477 134 c 0
 477 61 417 1 344 1 c 4
 270 1 211 58 211 134 c 0
503 1005 m 1
 403 914 341 835 341 709 c 1
 442 709 476 662 476 575 c 0
 476 488 429 433 341 433 c 0
 229 433 183 501 183 607 c 0
 183 800 283 951 429 1064 c 1
 503 1005 l 1
EndSplineSet
Validated: 1
EndChar

StartChar: uni061F
Encoding: 1567 1567 8
GlifName: uni061F_
Width: 924
VWidth: 2762
GlyphClass: 2
Flags: HW
LayerCount: 2
Fore
SplineSet
392 134 m 0
 392 207 452 268 525 268 c 0
 598 268 658 207 658 134 c 0
 658 61 598 1 525 1 c 0
 451 1 392 58 392 134 c 0
99 1011 m 4
 99 1225 273 1366 469 1366 c 4
 720 1366 825 1233 826 971 c 5
 670 971 l 5
 669 1108 618 1186 480 1186 c 4
 360 1186 280 1120.00390625 280 1002 c 4
 280 816.930664062 616.722840761 751.019567324 618 432 c 1
 433 432 l 1
 431.394028595 760.41211112 99 721.786132812 99 1011 c 4
EndSplineSet
Validated: 1
EndChar

StartChar: uni0621
Encoding: 1569 1569 9
GlifName: uni0621
Width: 830
VWidth: 2950
GlyphClass: 2
Flags: HW
AnchorPoint: "Anchor-7" 445.326 -105.646 basechar 0
AnchorPoint: "Anchor-10" 401.848 999.06 basechar 0
LayerCount: 2
Fore
SplineSet
454 263 m 1
 537 282 623 301 706 320 c 1
 732 151 l 1
 563 130 352 49 98 -90 c 1
 98 83 l 1
 169 132 232 165 294 188 c 1
 179 247 118 325 118 434 c 0
 118 639 255 768 443 768 c 0
 534 768 608 738 668 679 c 1
 613 545 l 1
 560 582 509 601 456 601 c 0
 350 601 280 540 280 435 c 0
 280 372 340 315 454 263 c 1
EndSplineSet
Position2: "Single Positioning lookup 2 subtable" dx=0 dy=0 dh=-178 dv=0
Position2: "Single Positioning lookup 1 subtable" dx=0 dy=0 dh=-120 dv=0
EndChar

StartChar: uni0627
Encoding: 1575 1575 15
GlifName: uni0627
Width: 465
VWidth: 2950
GlyphClass: 2
Flags: HW
AnchorPoint: "Anchor-10" 224.871 1495.46 basechar 0
AnchorPoint: "Anchor-7" 228.587 -238.365 basechar 0
LayerCount: 2
Fore
SplineSet
148 1366 m 1
 317 1366 l 1
 317 1 l 1
 148 1 l 1
 148 1366 l 1
EndSplineSet
Validated: 1
Position2: "Single Positioning lookup 2 subtable" dx=0 dy=0 dh=-143 dv=0
Position2: "Single Positioning lookup 1 subtable" dx=0 dy=0 dh=-127 dv=0
Position2: "Single Positioning lookup 0 subtable" dx=0 dy=0 dh=130 dv=0
Substitution2: "'fina' Terminal Forms in Arabic lookup 1 subtable" uniFE8E
EndChar

StartChar: uni062D
Encoding: 1581 1581 21
GlifName: uni062D_
Width: 1347
VWidth: 2950
GlyphClass: 2
Flags: HW
AnchorPoint: "Anchor-7" 690.833 -830.619 basechar 0
AnchorPoint: "Anchor-10" 601.478 1176.07 basechar 0
LayerCount: 2
Fore
SplineSet
836 550 m 5
 811 560 801 564 745 587 c 4
 610 641 524 676 477 676 c 4
 401 676 325 626 276 562 c 6
 249 527 l 5
 98 602 l 5
 113 628 l 6
 197 765 327 854 478 854 c 4
 562 854 663 815 781 758 c 4
 988 657 1113 614 1228 608 c 5
 1215 438 l 5
 682 395 265 166 265 -135 c 4
 265 -383 443 -506 798 -506 c 4
 942 -506 1081 -473 1213 -411 c 5
 1248 -581 l 5
 1114 -645 962 -677 784 -677 c 4
 379 -677 99 -512 99 -151 c 4
 99 171 354 442 836 550 c 5
EndSplineSet
Validated: 1
Substitution2: "'fina' Terminal Forms in Arabic lookup 1 subtable" uniFEA2
Substitution2: "'medi' Medial Forms in Arabic lookup 2 subtable" uniFEA4
Substitution2: "'init' Initial Forms in Arabic lookup 3 subtable" uniFEA3
EndChar

StartChar: uni062F
Encoding: 1583 1583 23
GlifName: uni062F_
Width: 963
VWidth: 2950
GlyphClass: 2
Flags: HW
AnchorPoint: "Anchor-10" 371.137 1169.03 basechar 0
AnchorPoint: "Anchor-7" 432.24 -241.316 basechar 0
LayerCount: 2
Fore
SplineSet
98 207 m 1
 182 190 254 181 317 181 c 0
 564 181 689 241 689 364 c 0
 689 491 548 643 275 815 c 1
 373 963 l 1
 701 767 865 569 865 367 c 0
 865 125 688 2 330 2 c 0
 246 2 168 11 98 26 c 1
 98 207 l 1
EndSplineSet
Validated: 1
Position2: "Single Positioning lookup 2 subtable" dx=0 dy=0 dh=-178 dv=0
Position2: "Single Positioning lookup 1 subtable" dx=0 dy=0 dh=-173 dv=0
Substitution2: "'fina' Terminal Forms in Arabic lookup 1 subtable" uniFEAA
EndChar

StartChar: uni0631
Encoding: 1585 1585 25
GlifName: uni0631
Width: 780
VWidth: 2142
GlyphClass: 2
Flags: HW
AnchorPoint: "Anchor-10" 493.256 848.2 basechar 0
AnchorPoint: "Anchor-7" 322.969 -619.998 basechar 0
LayerCount: 2
Fore
SplineSet
600 527 m 5
 654 393 682 249 682 135 c 4
 682 -227 471 -448 50 -528 c 5
 -10 -374 l 5
 338 -308 513 -140 515 130 c 4
 515 221 489 349 438 469 c 5
 600 527 l 5
EndSplineSet
Validated: 1
Position2: "Single Positioning lookup 2 subtable" dx=0 dy=0 dh=-30 dv=0
Position2: "Single Positioning lookup 1 subtable" dx=0 dy=0 dh=-30 dv=0
Substitution2: "'fina' Terminal Forms in Arabic lookup 1 subtable" uniFEAE
EndChar

StartChar: uni0633
Encoding: 1587 1587 27
GlifName: uni0633
Width: 2456
GlyphClass: 2
Flags: HW
AnchorPoint: "Anchor-10" 1770.53 930.1 basechar 0
AnchorPoint: "Anchor-7" 710.902 -716.086 basechar 0
LayerCount: 2
Fore
SplineSet
1531 0 m 0
 1451.33300781 0 1391.33333333 19.3333333333 1342 58 c 1
 1336.6706707 -320.382379878 1104.02963789 -520 721 -520 c 4
 305.666666667 -520 98 -328 98 56 c 0
 98 196 128 339 188 485 c 1
 343 422 l 1
 294.333333333 293.333333333 270 173 270 61 c 0
 270 -211 422.666666667 -347 728 -347 c 0
 1026.66666667 -347 1176.33333333 -198 1177 100 c 0
 1177 220.666666667 1147 343.666666667 1087 469 c 1
 1256 527 l 1
 1315 344 l 2
 1350.06273555 235.246091425 1417 181 1533 180 c 0
 1665.06738281 180 1718 253.536132812 1718 389 c 0
 1718 421 1714.66699219 480.333007812 1708 567 c 1
 1873 587 l 1
 1889 361 l 2
 1896 259 1942.9375 180 2047 180 c 0
 2138 180 2186 254.666992188 2186 402 c 0
 2186 473.333007812 2171.33300781 561.333007812 2142 666 c 1
 2310 711 l 1
 2342 609 2358 511 2358 417 c 0
 2358 187.930664062 2275.88574219 1 2048 0 c 0
 1933.33300781 0 1853.33300781 47.6669921875 1806 143 c 1
 1737.33300781 47.6669921875 1645.66699219 0 1531 0 c 0
EndSplineSet
Position2: "Single Positioning lookup 2 subtable" dx=0 dy=0 dh=-178 dv=0
Position2: "Single Positioning lookup 1 subtable" dx=0 dy=0 dh=-173 dv=0
Substitution2: "'fina' Terminal Forms in Arabic lookup 1 subtable" uniFEB2
Substitution2: "'medi' Medial Forms in Arabic lookup 2 subtable" uniFEB4
Substitution2: "'init' Initial Forms in Arabic lookup 3 subtable" uniFEB3
EndChar

StartChar: uni0635
Encoding: 1589 1589 29
GlifName: uni0635
Width: 2575
VWidth: 2950
GlyphClass: 2
Flags: HW
AnchorPoint: "Anchor-7" 710.902 -716.086 basechar 0
AnchorPoint: "Anchor-10" 2052.53 1128.1 basechar 0
LayerCount: 2
Fore
SplineSet
1753 181 m 2
 2115 181 2299 257 2299 413 c 0
 2299 522 2220 605 2104 605 c 0
 1950 605 1783 457 1605 180 c 1
 1753 181 l 2
1177 100 m 0
 1177 223 1146 346 1087 469 c 1
 1256 527 l 1
 1315 344 l 2
 1343 258 1376 214 1419 209 c 1
 1646 595 1869 787 2098 787 c 0
 2317 787 2477 628 2477 422 c 0
 2476 141 2237 0 1757 0 c 2
 1706 0 l 2
 1537 0 1419 20 1342 57 c 1
 1337 -329 1096 -520 721 -520 c 0
 305 -520 98 -328 98 56 c 0
 98 196 128 339 188 485 c 1
 343 422 l 1
 295 295 270 176 270 61 c 0
 270 -211 423 -347 728 -347 c 0
 1025 -347 1176 -198 1177 100 c 0
EndSplineSet
Validated: 1
Position2: "Single Positioning lookup 2 subtable" dx=0 dy=0 dh=-178 dv=0
Position2: "Single Positioning lookup 1 subtable" dx=0 dy=0 dh=-173 dv=0
Substitution2: "'fina' Terminal Forms in Arabic lookup 1 subtable" uniFEBA
Substitution2: "'medi' Medial Forms in Arabic lookup 2 subtable" uniFEBC
Substitution2: "'init' Initial Forms in Arabic lookup 3 subtable" uniFEBB
EndChar

StartChar: uni0637
Encoding: 1591 1591 31
GlifName: uni0637
Width: 1471
VWidth: 2950
GlyphClass: 2
Flags: HW
AnchorPoint: "Anchor-10" 476.36 1498.58 basechar 0
AnchorPoint: "Anchor-7" 636.602 -238.453 basechar 0
LayerCount: 2
Fore
SplineSet
649 182 m 6
 1011 182 1195 258 1195 414 c 4
 1195 523 1116 606 1000 606 c 4
 846 606 679 458 501 181 c 5
 649 182 l 6
320 180 m 5
 344 219 369 258 393 296 c 5
 393 1366 l 5
 562 1366 l 5
 562 536 l 5
 695 700 836 787 991 787 c 4
 1218 787 1373 633 1373 422 c 4
 1371 141 1132 0 653 0 c 6
 98 0 l 5
 98 180 l 5
 320 180 l 5
EndSplineSet
Validated: 1
Position2: "Single Positioning lookup 2 subtable" dx=0 dy=0 dh=-178 dv=0
Position2: "Single Positioning lookup 1 subtable" dx=0 dy=0 dh=-173 dv=0
Substitution2: "'fina' Terminal Forms in Arabic lookup 1 subtable" uniFEC2
Substitution2: "'medi' Medial Forms in Arabic lookup 2 subtable" uniFEC4
Substitution2: "'init' Initial Forms in Arabic lookup 3 subtable" uniFEC3
EndChar

StartChar: uni0639
Encoding: 1593 1593 33
GlifName: uni0639
Width: 1306
VWidth: 2950
GlyphClass: 2
Flags: HW
AnchorPoint: "Anchor-7" 670.833 -830.619 basechar 0
AnchorPoint: "Anchor-10" 694.478 1364.07 basechar 0
LayerCount: 2
Fore
SplineSet
968 783 m 5
 869 841 785 871 715 871 c 4
 598 871 495 794 495 670 c 4
 495 574 545 525 605 449 c 5
 724 470 827 481 912 481 c 4
 974 481 1034 477 1093 471 c 5
 1070 300 l 5
 1026 302 992 302 971 302 c 4
 492 302 264 133 264 -157 c 4
 264 -374 439 -502 766 -502 c 4
 904 -502 1041 -469 1173 -408 c 5
 1208 -578 l 5
 1076 -643 925 -674 755 -674 c 4
 388 -674 98 -508 98 -164 c 4
 98 60 199 279 437 385 c 5
 357 478 322 577 322 683 c 4
 322 876 502 1049 705 1049 c 4
 806 1049 917 1009 1034 929 c 5
 968 783 l 5
EndSplineSet
Validated: 1
Substitution2: "'fina' Terminal Forms in Arabic lookup 1 subtable" uniFECA
Substitution2: "'medi' Medial Forms in Arabic lookup 2 subtable" uniFECC
Substitution2: "'init' Initial Forms in Arabic lookup 3 subtable" uniFECB
EndChar

StartChar: uni0640
Encoding: 1600 1600 35
GlifName: afii57440
Width: 286
VWidth: 2950
GlyphClass: 2
Flags: HW
AnchorPoint: "Anchor-10" 143.774 870.11 basechar 0
AnchorPoint: "Anchor-7" 147.7 -236.739 basechar 0
LayerCount: 2
Fore
SplineSet
-20 0 m 5
 -20 180 l 5
 306 180 l 5
 306 0 l 5
 -20 0 l 5
EndSplineSet
Validated: 1
Position2: "Single Positioning lookup 2 subtable" dx=0 dy=0 dh=-178 dv=0
Position2: "Single Positioning lookup 1 subtable" dx=0 dy=0 dh=-173 dv=0
EndChar

StartChar: uni0643
Encoding: 1603 1603 38
GlifName: uni0643
Width: 1831
VWidth: 2950
GlyphClass: 2
Flags: HW
AnchorPoint: "Anchor-10" 916.11 1240.05 basechar 0
AnchorPoint: "Anchor-7" 900.268 -226.468 basechar 0
LayerCount: 2
Fore
SplineSet
708 588 m 1
 770 581 794 577 839 577 c 0
 939 577 1025 577 1025 660 c 0
 1025 721 989.73046875 727.703125 922 728 c 0
 832.982421875 728.390625 753 774 753 909 c 0
 753 1018.99121094 822.397460938 1100.578125 972.252929688 1100.578125 c 0
 1004.96289062 1100.578125 1041.50683594 1097.16699219 1082 1090 c 1
 1082 995 l 1
 1041.23339844 1000.68847656 1006.30957031 1003.39941406 976.748046875 1003.39941406 c 0
 881.5859375 1003.39941406 842 965.3046875 842 918 c 0
 842 866 865.876953125 832.399414062 940 832 c 0
 1067.76171875 831.3125 1113 782 1113 664 c 0
 1113 521 1029 479 846 479 c 0
 794 479 774 484 708 494 c 1
 708 588 l 1
978 180 m 2
 1451 180 1514 276 1514 470 c 2
 1514 1366 l 1
 1683 1366 l 1
 1683 472 l 2
 1683 157 1564 0 985 0 c 2
 840 0 l 2
 361 0 98 162 98 484 c 0
 98 573 118 659 152 738 c 1
 305 681 l 1
 284 625 273 567 273 509 c 0
 274 289 462 180 830 180 c 2
 978 180 l 2
EndSplineSet
Validated: 1
Position2: "Single Positioning lookup 2 subtable" dx=0 dy=0 dh=-143 dv=0
Position2: "Single Positioning lookup 1 subtable" dx=0 dy=0 dh=-104 dv=0
Position2: "Single Positioning lookup 0 subtable" dx=0 dy=0 dh=130 dv=0
Substitution2: "'fina' Terminal Forms in Arabic lookup 1 subtable" uniFEDA
Substitution2: "'medi' Medial Forms in Arabic lookup 2 subtable" uniFEDC
Substitution2: "'init' Initial Forms in Arabic lookup 3 subtable" uniFEDB
EndChar

StartChar: uni0644
Encoding: 1604 1604 39
GlifName: uni0644
Width: 1377
VWidth: 2950
GlyphClass: 2
Flags: HW
AnchorPoint: "Anchor-7" 662.902 -708.086 basechar 0
AnchorPoint: "Anchor-10" 654.908 1005.66 basechar 0
LayerCount: 2
Fore
SplineSet
335 358 m 1
 291 246 269 151 269 36 c 0
 269 -219 405 -347 675 -347 c 0
 929 -347 1058 -208 1058 68 c 2
 1061 1366 l 5
 1229 1366 l 5
 1228 107 l 2
 1228 -312 1043 -520 674 -520 c 0
 290 -520 98 -335 98 37 c 0
 98 172 125 288 180 421 c 1
 335 358 l 1
EndSplineSet
Validated: 1
Position2: "Single Positioning lookup 2 subtable" dx=0 dy=0 dh=-60 dv=0
Position2: "Single Positioning lookup 1 subtable" dx=0 dy=0 dh=-58 dv=0
Position2: "Single Positioning lookup 0 subtable" dx=0 dy=0 dh=130 dv=0
Substitution2: "'fina' Terminal Forms in Arabic lookup 1 subtable" uniFEDE
Substitution2: "'medi' Medial Forms in Arabic lookup 2 subtable" uniFEE0
Substitution2: "'init' Initial Forms in Arabic lookup 3 subtable" uniFEDF
EndChar

StartChar: uni0645
Encoding: 1605 1605 40
GlifName: uni0645
Width: 1230
VWidth: 2620
GlyphClass: 2
Flags: HW
AnchorPoint: "Anchor-10" 773.952 1020.2 basechar 0
AnchorPoint: "Anchor-7" 714.983 -338.909 basechar 0
LayerCount: 2
Fore
SplineSet
560 296 m 1
 680 203 775 155 843 155 c 0
 925 156 965 203 965 295 c 0
 965 418 896 516 781 516 c 0
 685 516 612 440 560 296 c 1
112 -655 m 5
 105 -538 101 -438 101 -333 c 4
 101 14 140 281 385 329 c 1
 483 577 615 700 780 701 c 0
 995 701 1132 522 1132 307 c 0
 1132 114 1038 -23 843 -23 c 0
 775 -23 693 5 599 59 c 0
 567 79 533 97 496 116 c 0
 467 131 440 138 419 138 c 0
 315 137 274 -7 274 -305 c 4
 274 -436 279 -548 288 -655 c 5
 112 -655 l 5
EndSplineSet
Validated: 1
Position2: "Single Positioning lookup 2 subtable" dx=0 dy=0 dh=-178 dv=0
Position2: "Single Positioning lookup 1 subtable" dx=0 dy=0 dh=-173 dv=0
Substitution2: "'init' Initial Forms in Arabic lookup 3 subtable" uniFEE3
Substitution2: "'medi' Medial Forms in Arabic lookup 2 subtable" uniFEE4
Substitution2: "'fina' Terminal Forms in Arabic lookup 1 subtable" uniFEE2
EndChar

StartChar: uni0647
Encoding: 1607 1607 42
GlifName: uni0647
Width: 922
VWidth: 2950
GlyphClass: 2
Flags: HW
AnchorPoint: "Anchor-10" 409.775 1209.01 basechar 0
AnchorPoint: "Anchor-7" 435.63 -242.576 basechar 0
LayerCount: 2
Fore
SplineSet
447 635 m 1
 321 524 265 436 265 349 c 0
 265 237 323 180 460 180 c 0
 598 180 657 237 657 350 c 0
 657 431 590 520 447 635 c 1
369 932 m 1
 679 705 824 515 824 344 c 0
 824 149 688 7 461 4 c 0
 229 4 98 126 98 344 c 0
 98 482 167 616 317 763 c 1
 272 802 l 1
 369 932 l 1
EndSplineSet
Validated: 1
Position2: "Single Positioning lookup 2 subtable" dx=0 dy=0 dh=-178 dv=0
Position2: "Single Positioning lookup 1 subtable" dx=0 dy=0 dh=-173 dv=0
Substitution2: "'fina' Terminal Forms in Arabic lookup 1 subtable" uniFEEA
Substitution2: "'medi' Medial Forms in Arabic lookup 2 subtable" uniFEEC
Substitution2: "'init' Initial Forms in Arabic lookup 3 subtable" uniFEEB
EndChar

StartChar: uni0648
Encoding: 1608 1608 43
GlifName: uni0648
Width: 880
VWidth: 2142
GlyphClass: 2
Flags: HW
AnchorPoint: "Anchor-7" 415.969 -619.998 basechar 0
AnchorPoint: "Anchor-10" 430.256 1030.2 basechar 0
LayerCount: 2
Fore
SplineSet
616 13 m 1
 537 3 481 -2 457 -2 c 0
 217 -2 98 96 98 296 c 0
 98 523 233 720 428 720 c 0
 672 720 782 444 782 166 c 0
 782 -206 577 -450 168 -528 c 1
 108 -374 l 1
 398 -320 564 -180 616 13 c 1
616 199 m 1
 602 421 537 535 420 535 c 0
 327 535 263 426 263 311 c 0
 263 219 329 172 458 172 c 0
 510 172 563 183 616 199 c 1
EndSplineSet
Validated: 1
Position2: "Single Positioning lookup 2 subtable" dx=0 dy=0 dh=-30 dv=0
Position2: "Single Positioning lookup 1 subtable" dx=0 dy=0 dh=-30 dv=0
Substitution2: "'fina' Terminal Forms in Arabic lookup 1 subtable" uniFEEE
EndChar

StartChar: uni0649
Encoding: 1609 1609 44
GlifName: uni0649
Width: 1477
VWidth: 2950
GlyphClass: 2
Flags: HW
AnchorPoint: "Anchor-7" 716.902 -676.086 basechar 0
AnchorPoint: "Anchor-10" 644.6 936.22 basechar 0
LayerCount: 2
Fore
SplineSet
361 475 m 1
 300 326 269 203 269 82 c 0
 269 -190 421 -327 724 -328 c 0
 958 -328 1217 -226 1217 -42 c 0
 1217 7 1160.05664062 16 1118 16 c 2
 974 16 l 2
 813.20703125 16 728 101 728 263 c 0
 728 533.663085938 949.668945312 706.53515625 1191.55859375 706.53515625 c 4
 1229.61230469 706.53515625 1300 705 1372 675 c 5
 1340 510 l 5
 1282 528 1231.02148438 531.233398438 1191.96875 531.233398438 c 4
 1014.14355469 531.233398438 897 398.296875 897 276 c 0
 897 217 912 192 984 192 c 2
 1164 192 l 2
 1305.2890625 191.411132812 1379 110 1379 -2 c 0
 1379 -321 1111 -499 719 -499 c 0
 305 -499 98 -307 98 79 c 0
 98 221 134 368 206 538 c 1
 361 475 l 1
EndSplineSet
Validated: 1
Position2: "Single Positioning lookup 2 subtable" dx=0 dy=0 dh=-60 dv=0
Position2: "Single Positioning lookup 1 subtable" dx=0 dy=0 dh=-58 dv=0
Substitution2: "'fina' Terminal Forms in Arabic lookup 1 subtable" uniFEF0
Substitution2: "'medi' Medial Forms in Arabic lookup 2 subtable" uniFBE9
Substitution2: "'init' Initial Forms in Arabic lookup 3 subtable" uniFBE8
EndChar

StartChar: uni064B
Encoding: 1611 1611 46
GlifName: uni064B_
Width: 0
VWidth: 2316
GlyphClass: 4
Flags: HW
AnchorPoint: "Anchor-10" 583.551 1123.65 mark 0
AnchorPoint: "Anchor-9" 583.551 1123.65 mark 0
AnchorPoint: "Anchor-1" 553.285 1596.25 basemark 0
AnchorPoint: "Anchor-1" 583.551 1123.65 mark 0
LayerCount: 2
Fore
SplineSet
327 1076 m 1
 327 1180 l 1
 782 1366 l 1
 782 1263 l 1
 327 1076 l 1
327 1288 m 1
 327 1392 l 1
 782 1578 l 1
 782 1475 l 1
 327 1288 l 1
EndSplineSet
EndChar

StartChar: uni064C
Encoding: 1612 1612 47
GlifName: uni064C_
Width: 0
VWidth: 2316
GlyphClass: 4
Flags: HW
AnchorPoint: "Anchor-10" 680.906 1278.67 mark 0
AnchorPoint: "Anchor-9" 680.906 1278.67 mark 0
AnchorPoint: "Anchor-1" 637.739 1852.46 basemark 0
AnchorPoint: "Anchor-1" 680.906 1278.67 mark 0
LayerCount: 2
Fore
SplineSet
489 1629 m 0
 489 1726.34403608 557.578720581 1791 652 1791 c 0
 746.9412073 1791 814 1727.26136914 814 1628 c 0
 814 1589 804 1547 787 1507 c 1
 804 1504 819 1503 830 1503 c 1
 830 1427 l 1
 810 1428 786 1430 754 1436 c 1
 690.818294178 1285.56736709 597.606815014 1210.99202128 471.867219481 1210.99202128 c 0
 339.267824808 1210.99202128 270.984375 1333.99511719 268 1520 c 5
 347 1534 l 5
 350 1390 392 1289 473 1289 c 0
 547 1289 614 1343 673 1448 c 1
 567.206830152 1485.02760945 489 1533.83885907 489 1629 c 0
709 1523 m 1
 723.053510163 1555.79152371 736 1594.57522464 736 1627 c 0
 736 1675.05260976 699.641537636 1711 656 1711 c 0
 605.751193998 1711 569 1677.13488171 569 1625 c 0
 569 1567.8418395 644.003567546 1540.204938 709 1523 c 1
EndSplineSet
EndChar

StartChar: uni064D
Encoding: 1613 1613 48
GlifName: uni064D_
Width: 0
VWidth: 2316
GlyphClass: 4
Flags: HW
AnchorPoint: "Anchor-7" 542.278 32.7109 mark 0
AnchorPoint: "Anchor-6" 542.278 32.7109 mark 0
AnchorPoint: "Anchor-0" 592.022 -407.025 basemark 0
AnchorPoint: "Anchor-0" 542.278 32.7109 mark 0
LayerCount: 2
Fore
SplineSet
332 -446 m 1
 332 -342 l 1
 788 -156 l 1
 788 -260 l 1
 332 -446 l 1
332 -234 m 1
 332 -130 l 1
 788 56 l 1
 788 -48 l 1
 332 -234 l 1
EndSplineSet
EndChar

StartChar: uni064E
Encoding: 1614 1614 49
GlifName: uni064E_
Width: 0
VWidth: 2316
GlyphClass: 4
Flags: HW
AnchorPoint: "Anchor-10" 545.66 1397.63 mark 0
AnchorPoint: "Anchor-9" 545.66 1397.63 mark 0
AnchorPoint: "Anchor-1" 541.396 1651.77 basemark 0
AnchorPoint: "Anchor-1" 545.66 1397.63 mark 0
LayerCount: 2
Fore
SplineSet
296 1349 m 1
 296 1453 l 1
 752 1639 l 1
 752 1535 l 1
 296 1349 l 1
EndSplineSet
EndChar

StartChar: uni064F
Encoding: 1615 1615 50
GlifName: uni064F_
Width: 0
VWidth: 2316
GlyphClass: 4
Flags: HW
AnchorPoint: "Anchor-10" 591.295 1339.37 mark 0
AnchorPoint: "Anchor-9" 591.295 1339.37 mark 0
AnchorPoint: "Anchor-1" 542.134 1865.4 basemark 0
AnchorPoint: "Anchor-1" 591.295 1339.37 mark 0
LayerCount: 2
Fore
SplineSet
723 1427 m 1
 695 1427 669 1429 643 1433 c 1
 578 1342 444 1292 280 1283 c 1
 280 1361 l 1
 411 1373 519 1405 566 1455 c 1
 474.464114966 1471.64288819 380 1532.46344456 380 1626 c 0
 380 1723.76653486 448.787416907 1788 543 1788 c 0
 637.483259282 1788 706 1723.30209735 706 1625 c 0
 706 1586 697 1547 680 1506 c 1
 693 1504 708 1502 723 1502 c 1
 723 1427 l 1
600 1520 m 1
 614.053510163 1552.79152371 627 1591.57522464 627 1624 c 0
 627 1672.52693762 591.420717666 1707 547 1707 c 0
 496.353069173 1707 460 1674.44739485 460 1622 c 0
 460 1564.8418395 535.003567546 1537.204938 600 1520 c 1
EndSplineSet
EndChar

StartChar: uni0650
Encoding: 1616 1616 51
GlifName: uni0650
Width: 0
VWidth: 2316
GlyphClass: 4
Flags: HW
AnchorPoint: "Anchor-7" 571.144 -44.8242 mark 0
AnchorPoint: "Anchor-6" 571.144 -44.8242 mark 0
AnchorPoint: "Anchor-0" 619.091 -324.624 basemark 0
AnchorPoint: "Anchor-0" 571.144 -44.8242 mark 0
LayerCount: 2
Fore
SplineSet
343 -346 m 1
 343 -242 l 1
 798 -56 l 1
 798 -159 l 1
 343 -346 l 1
EndSplineSet
EndChar

StartChar: uni0651
Encoding: 1617 1617 52
GlifName: uni0651
Width: 0
VWidth: 2393
GlyphClass: 4
Flags: HW
AnchorPoint: "Anchor-10" 598.801 1453.71 mark 0
AnchorPoint: "Anchor-9" 598.801 1453.71 mark 0
AnchorPoint: "Anchor-1" 570.087 1839.1 basemark 0
AnchorPoint: "Anchor-1" 598.801 1453.71 mark 0
LayerCount: 2
Fore
SplineSet
608 1758 m 1
 609 1730 609 1703 611 1676 c 0
 615.505859375 1615.16699219 637 1574 681 1574 c 0
 728 1574 748 1608 748 1675 c 0
 748 1700 742 1740 731 1793 c 1
 819 1807 l 1
 831 1766 837 1725 837 1685 c 0
 837 1550 788 1483 690 1482 c 0
 647 1482 599 1503 581 1539 c 1
 561 1461 493 1438 432 1438 c 0
 338.35345057 1438 293.873817788 1498.89504214 293.873817788 1616.0779836 c 0
 293.873817788 1652.22620263 298.760716473 1685.78929374 307 1716 c 1
 385 1703 l 1
 378 1672 376 1644 376 1620 c 0
 376 1564 399 1536 444 1536 c 0
 528.920476329 1536 531.4140625 1597.34667969 531.4140625 1719.33203125 c 0
 531.4140625 1731.65429688 531.29296875 1744.52734375 531 1758 c 1
 608 1758 l 1
EndSplineSet
EndChar

StartChar: uni0652
Encoding: 1618 1618 53
GlifName: uni0652
Width: 0
VWidth: 2316
GlyphClass: 4
Flags: HW
AnchorPoint: "Anchor-10" 593.219 1239.43 mark 0
AnchorPoint: "Anchor-9" 593.219 1239.43 mark 0
AnchorPoint: "Anchor-1" 589.537 1682.66 basemark 0
AnchorPoint: "Anchor-1" 593.219 1239.43 mark 0
LayerCount: 2
Fore
SplineSet
500 1462 m 4
 500 1410 542 1369 594 1369 c 4
 646 1369 687 1410 687 1462 c 4
 687 1514 646 1556 594 1556 c 4
 542 1556 500 1514 500 1462 c 4
421 1462 m 4
 421 1557 499 1635 594 1635 c 4
 689 1635 767 1557 767 1462 c 4
 767 1367 689 1289 594 1289 c 4
 499 1289 421 1367 421 1462 c 4
EndSplineSet
EndChar

StartChar: uni0653
Encoding: 1619 1619 54
GlifName: uni0653
Width: 0
VWidth: 2673
GlyphClass: 4
Flags: HW
AnchorPoint: "Anchor-10" 461.017 1539.11 mark 0
AnchorPoint: "Anchor-9" 461.017 1539.11 mark 0
AnchorPoint: "Anchor-1" 449.017 1873.25 basemark 0
AnchorPoint: "Anchor-1" 461.017 1539.11 mark 0
LayerCount: 2
Fore
SplineSet
373.235351562 1653.82714844 m 0
 309.54296875 1653.82714844 250.572006216 1607.11076154 197 1543 c 1
 96 1634 l 1
 164.215820312 1731.57519531 245.107421875 1795.68457031 338.674804688 1795.68457031 c 0
 422.58984375 1795.68457031 490.501953125 1744.62207031 574.038085938 1744.62207031 c 0
 628.305664062 1744.62207031 687.625976562 1766.41601562 752 1799 c 1
 818 1677 l 1
 749.35001141 1634.69244889 676.876953125 1607.77539062 600.071289062 1607.77539062 c 0
 519.129882812 1607.77539062 451.65234375 1653.82714844 373.235351562 1653.82714844 c 0
EndSplineSet
EndChar

StartChar: uni0657
Encoding: 1623 1623 57
GlifName: uni0657
Width: 0
VWidth: 2316
GlyphClass: 4
Flags: HW
AnchorPoint: "Anchor-10" 513.285 1400.55 mark 0
AnchorPoint: "Anchor-9" 513.285 1400.55 mark 0
AnchorPoint: "Anchor-1" 537.285 2069.85 basemark 0
AnchorPoint: "Anchor-1" 513.285 1400.55 mark 0
LayerCount: 2
Fore
SplineSet
265 1805 m 1
 305 1804 348 1801 395 1796 c 1
 396 1797 l 2
 496 1939 625 2018 785 2033 c 1
 785 1955 l 1
 662 1935 562 1876 486 1778 c 1
 573.073233818 1752.51515108 658 1697.36135892 658 1599 c 0
 658 1507.71378279 593.059658194 1438 501 1438 c 0
 408.64267729 1438 332 1502.56128158 332 1603 c 0
 332 1632 339 1672 355 1722 c 1
 328 1724 299 1726 265 1726 c 1
 265 1805 l 1
501 1516 m 0
 549.036312445 1516 577 1548.90280457 577 1597 c 0
 577 1658.28540997 503.060368911 1693.27134074 437 1709 c 1
 419 1666 410 1632 410 1605 c 0
 410 1552.84187884 451.285616311 1516 501 1516 c 0
EndSplineSet
EndChar

StartChar: uni065A
Encoding: 1626 1626 58
GlifName: uni065A_
Width: 0
VWidth: 2316
GlyphClass: 4
Flags: HW
AnchorPoint: "Anchor-10" 573.285 1350.55 mark 0
AnchorPoint: "Anchor-9" 573.285 1350.55 mark 0
AnchorPoint: "Anchor-1" 571.012 1862.38 basemark 0
AnchorPoint: "Anchor-1" 573.285 1350.55 mark 0
LayerCount: 2
Fore
SplineSet
502 1444 m 1
 309 1768 l 1
 433 1768 l 1
 573 1528 l 1
 714 1768 l 1
 838 1768 l 1
 644 1444 l 1
 502 1444 l 1
EndSplineSet
EndChar

StartChar: uni0660
Encoding: 1632 1632 59
GlifName: afii57392
Width: 799
VWidth: 2655
GlyphClass: 2
Flags: HW
LayerCount: 2
Fore
SplineSet
174.950195312 488.950195312 m 5
 398.150390625 713.049804688 l 5
 624.049804688 488.049804688 l 5
 399.950195312 263.950195312 l 5
 174.950195312 488.950195312 l 5
EndSplineSet
EndChar

StartChar: uni0661
Encoding: 1633 1633 60
GlifName: afii57393
Width: 651
VWidth: 2950
GlyphClass: 2
Flags: HW
LayerCount: 2
Fore
SplineSet
274 1320 m 5
 409 1020 477 670 477 245 c 6
 477 0 l 1
 307 0 l 1
 307 248 l 6
 307 674 244 1006 118 1263 c 5
 274 1320 l 5
EndSplineSet
Validated: 1
EndChar

StartChar: uni0662
Encoding: 1634 1634 61
GlifName: afii57394
Width: 1114
VWidth: 2950
GlyphClass: 2
Flags: HW
LayerCount: 2
Fore
SplineSet
307 248 m 6
 307 674 244 1006 118 1263 c 5
 273 1319 l 5
 303 1239 334 1160 364 1080 c 4
 411 957 484 895 624 895 c 4
 766 895 830 995 830 1150 c 4
 830 1203.19433594 819.608398438 1269.30761719 813 1310 c 5
 982 1329 l 5
 987.709960938 1284.68945312 996 1218.88867188 996 1160 c 4
 996 888 866 722 626 722 c 4
 551 722 508 733 438 763 c 5
 465 573 477 404 477 245 c 6
 477 0 l 1
 307 0 l 1
 307 248 l 6
EndSplineSet
Validated: 1
EndChar

StartChar: uni0663
Encoding: 1635 1635 62
GlifName: afii57395
Width: 1411
VWidth: 2950
GlyphClass: 2
Flags: HW
LayerCount: 2
Fore
SplineSet
307 248 m 6
 307 674 244 1006 118 1263 c 5
 273 1319 l 5
 309 1218 346 1118 382 1017 c 4
 411 936 473 896 566 895 c 4
 655 895 697 985 698 1161 c 0
 698 1193 699 1226 699 1258 c 1
 853 1271 l 1
 854 1237 856 1202 857 1168 c 0
 864 986 910 895 999 895 c 0
 1102 895 1128 992 1128 1094 c 0
 1128 1189 1116 1258 1107 1310 c 1
 1276 1330 l 1
 1283 1275 1293 1198 1293 1100 c 0
 1293 880 1200 722 995 722 c 0
 912 722 838 756 772 833 c 1
 708 756 634 722 568 722 c 4
 525 722 482 730 440 755 c 5
 466 566 477 414 477 245 c 6
 477 0 l 5
 307 0 l 5
 307 248 l 6
EndSplineSet
Validated: 1
EndChar

StartChar: uni0664
Encoding: 1636 1636 63
GlifName: afii57396
Width: 1006
VWidth: 2950
GlyphClass: 2
Flags: HW
LayerCount: 2
Fore
SplineSet
768 624 m 5
 467 503 314 412 314 311 c 0
 314 214 462 180 704 180 c 2
 896 180 l 1
 898 0 l 1
 697 0 l 2
 324 1 131 101 131 307 c 0
 131 460 271 573 529 688 c 5
 322 732 214 828 214 993 c 4
 214 1202 418 1316 656 1319 c 4
 700 1319 749 1316 798 1310 c 5
 785 1132 l 5
 752 1136 722 1138 694 1138 c 4
 506 1138 409 1086 409 976 c 4
 409 880 531 825 766 805 c 5
 768 624 l 5
EndSplineSet
Validated: 1
EndChar

StartChar: uni0665
Encoding: 1637 1637 64
GlifName: afii57397
Width: 1177
VWidth: 2950
GlyphClass: 2
Flags: HW
LayerCount: 2
Fore
SplineSet
562 979 m 1
 382 786 289 599 289 468 c 0
 289 312 387 178 595 178 c 0
 788 178 889 313 889 475 c 0
 889 629 768 815 562 979 c 1
470 1289 m 1
 865 1007 1061 773 1061 452 c 0
 1061 198 888 0 591 0 c 0
 276 0 117 204 117 451 c 0
 117 675 223 863 419 1091 c 1
 361 1136 l 1
 470 1289 l 1
EndSplineSet
Validated: 1
EndChar

StartChar: uni0666
Encoding: 1638 1638 65
GlifName: afii57398
Width: 1175
VWidth: 2950
GlyphClass: 2
Flags: HW
LayerCount: 2
Fore
SplineSet
836 0 m 1
 755 333 711 670 703 1076 c 5
 590 1045 516 1039 404 1039 c 0
 273 1039 214 1055 93 1110 c 1
 93 1307 l 1
 223 1247 297 1226 450 1226 c 0
 597 1226 710 1248 864 1309 c 5
 872 734 923 324 1020 0 c 1
 836 0 l 1
EndSplineSet
EndChar

StartChar: uni0667
Encoding: 1639 1639 66
GlifName: afii57399
Width: 1246
VWidth: 2950
GlyphClass: 2
Flags: HW
LayerCount: 2
Fore
SplineSet
542 0 m 1
 452 513 289 946 100 1235 c 5
 255 1319 l 5
 402 1070 553 718 624 304 c 1
 693 718 844 1070 991 1319 c 5
 1146 1235 l 5
 957 946 795 513 705 0 c 1
 542 0 l 1
EndSplineSet
Validated: 1
EndChar

StartChar: uni0668
Encoding: 1640 1640 67
GlifName: afii57400
Width: 1246
VWidth: 2950
GlyphClass: 2
Flags: HW
LayerCount: 2
Fore
SplineSet
542 1305 m 5
 705 1305 l 5
 795 792 957 359 1146 70 c 1
 991 -14 l 1
 844 235 693 587 624 1001 c 5
 553 587 402 235 255 -14 c 1
 100 70 l 1
 289 359 452 792 542 1305 c 5
EndSplineSet
Validated: 1
EndChar

StartChar: uni0669
Encoding: 1641 1641 68
GlifName: afii57401
Width: 1026
GlyphClass: 2
Flags: HW
LayerCount: 2
Fore
SplineSet
107 927 m 4
 107 1118.6875 260.520507812 1313 462 1313 c 4
 728.505859375 1313 799.41796875 1108.53808594 814 827 c 4
 829.333007812 518.333007812 840.333333333 256 847 0 c 1
 679 0 l 1
 675.438190502 136.536030769 664.559570312 502.549804688 661 639 c 5
 627.666992188 629 565 614 483 614 c 4
 233.250976562 614 107 702.737304688 107 927 c 4
461 1142 m 4
 354.569335938 1142 273 1033.03515625 273 927 c 4
 273 831.666992188 330.666992188 784 486 784 c 4
 536.666992188 784 613.666992188 799 647 809 c 5
 640.159179688 920.72265625 631.75390625 1019.59472656 590.510742188 1080 c 4
 563.862304688 1119.03027344 523.50390625 1142 461 1142 c 4
EndSplineSet
EndChar

StartChar: uni066A
Encoding: 1642 1642 69
GlifName: afii57381
Width: 1033
VWidth: 4036
GlyphClass: 2
Flags: HW
LayerCount: 2
Fore
SplineSet
741.888671875 1351.76074219 m 5
 874 1292 l 5
 292.056640625 5.498046875 l 1
 159.944335938 65.2587890625 l 1
 741.888671875 1351.76074219 l 5
637 193 m 0
 637 266 697 327 770 327 c 0
 843 327 903 266 903 193 c 0
 903 120 843 60 770 60 c 0
 696 60 637 117 637 193 c 0
130 1159 m 0
 130 1232 190 1293 263 1293 c 0
 336 1293 396 1232 396 1159 c 0
 396 1086 336 1026 263 1026 c 0
 189 1026 130 1083 130 1159 c 0
EndSplineSet
Validated: 1
EndChar

StartChar: uni066B
Encoding: 1643 1643 70
GlifName: uni066B_
Width: 772
VWidth: 2950
GlyphClass: 2
Flags: HW
LayerCount: 2
Fore
SplineSet
534 713 m 5
 661 659 l 5
 199 -408 l 5
 69 -352 l 5
 534 713 l 5
EndSplineSet
Validated: 1
PairPos2: "'kern' Horizontal Kerning lookup 4 subtable 1" uni06F2 dx=-130 dy=0 dh=-130 dv=0 dx=0 dy=0 dh=0 dv=0
PairPos2: "'kern' Horizontal Kerning lookup 4 subtable 1" uni06F3 dx=-130 dy=0 dh=-130 dv=0 dx=0 dy=0 dh=0 dv=0
PairPos2: "'kern' Horizontal Kerning lookup 4 subtable 1" uni06F4 dx=-110 dy=0 dh=-110 dv=0 dx=0 dy=0 dh=0 dv=0
EndChar

StartChar: uni066C
Encoding: 1644 1644 71
GlifName: uni066C_
Width: 560
GlyphClass: 2
Flags: HW
LayerCount: 2
Fore
SplineSet
178 -300 m 1
 83 -228 l 1
 145.666992188 -140.666992188 184.333007812 -40.6669921875 187 52 c 1
 187 219 l 1
 358 219 l 1
 358 74 l 2
 358 -78.0341796875 266.375 -228.12109375 178 -300 c 1
EndSplineSet
Validated: 1
EndChar

StartChar: uni066D
Encoding: 1645 1645 72
GlifName: afii63167
Width: 1436
VWidth: 2948
GlyphClass: 2
Flags: HW
LayerCount: 2
Fore
SplineSet
151 1039 m 5
 583 1039 l 5
 718 1450 l 5
 853 1039 l 5
 1285 1039 l 5
 936 783 l 5
 1070 373 l 5
 718 627 l 5
 366 373 l 5
 500 783 l 5
 151 1039 l 5
EndSplineSet
Validated: 1
EndChar

StartChar: uni066E
Encoding: 1646 1646 73
GlifName: uni066E_
Width: 1777
VWidth: 2950
GlyphClass: 2
Flags: HW
AnchorPoint: "Anchor-10" 973.36 1413.35 basechar 0
AnchorPoint: "Anchor-7" 923.36 -259.261 basechar 0
LayerCount: 2
Fore
SplineSet
975 0 m 6
 840 0 l 6
 361 0 98 162 98 484 c 4
 98 573 118 659 152 738 c 5
 305 681 l 5
 284 625 273 567 273 509 c 4
 274 289 462 180 830 180 c 6
 968 180 l 6
 1242 180 1506 180 1506 448 c 4
 1506 508 1493 596 1470 698 c 5
 1630 738 l 5
 1663 638 1679 543 1679 463 c 4
 1679 59 1386 -0 975 0 c 6
EndSplineSet
Validated: 1
Substitution2: "'fina' Terminal Forms in Arabic lookup 1 subtable" uni066E.fina
EndChar

StartChar: uni066F
Encoding: 1647 1647 74
GlifName: uni066F_
Width: 1437
VWidth: 2950
GlyphClass: 2
Flags: HW
AnchorPoint: "Anchor-10" 115.809 1360.22 basechar 0
AnchorPoint: "Anchor-7" 329.219 -763.353 basechar 0
LayerCount: 2
Fore
SplineSet
1163 276 m 5
 1147 411 1100 584 971 584 c 4
 887 584 811 492 811 376 c 4
 811 292 871 249 987 249 c 4
 1046 249 1105 259 1163 276 c 5
343 482 m 5
 295 355 270 236 270 121 c 4
 270 -150 419 -287 725 -287 c 4
 1061 -287 1176 -142 1180 109 c 5
 1115 90 1048 79 971 79 c 4
 760 79 651 170 651 349 c 4
 651 552 772 759 978 759 c 4
 1247 759 1339 459 1339 156 c 4
 1339 -259 1151 -460 721 -460 c 4
 302 -460 98 -268 98 116 c 4
 98 256 128 399 188 545 c 5
 343 482 l 5
EndSplineSet
Validated: 1
Substitution2: "'fina' Terminal Forms in Arabic lookup 1 subtable" uni066F.fina
EndChar

StartChar: uni0670
Encoding: 1648 1648 75
GlifName: uni0670
Width: 0
VWidth: 2574
GlyphClass: 4
Flags: HW
AnchorPoint: "Anchor-10" 636.984 1500.61 mark 0
AnchorPoint: "Anchor-9" 636.984 1500.61 mark 0
AnchorPoint: "Anchor-1" 636.984 1957.18 basemark 0
AnchorPoint: "Anchor-1" 636.984 1500.61 mark 0
LayerCount: 2
Fore
SplineSet
593 1568 m 1
 593 1930 l 1
 681 1930 l 1
 681 1568 l 1
 593 1568 l 1
EndSplineSet
EndChar

StartChar: uni0674
Encoding: 1652 1652 76
GlifName: uni0674
Width: 551
VWidth: 2539
GlyphClass: 2
Flags: HW
LayerCount: 2
Fore
SplineSet
186.089656801 1969.38869169 m 1
 136.28964359 2009.74134045 116 2058.125 116 2133 c 0
 116 2260.95703125 211.33203125 2341 317 2341 c 4
 365.200195312 2341 411.235351562 2326.26367188 453.021484375 2300.22851562 c 5
 453.930664062 2181.05078125 l 5
 412.57421875 2205.87695312 372.530273438 2218 331 2218 c 4
 280.383789062 2218 231 2190.47070312 231 2119.9375 c 0
 232.08203125 2076.67382812 256.663905645 2044.53378033 319.339127703 2021.28305483 c 0
 326.164850476 2019.00746468 332.381749635 2017.1953125 338.90234375 2017.1953125 c 0
 341.898315692 2017.1953125 342.81231583 2017.36171024 347.366653688 2018.36215634 c 0
 391.01717254 2026.73410219 436.828785599 2036.40647122 480 2044.92278447 c 1
 480 1928.93916352 l 1
 83 1833.34702593 l 1
 83 1946.00679526 l 1
 186.089656801 1969.38869169 l 1
EndSplineSet
Validated: 1
EndChar

StartChar: uni06A1
Encoding: 1697 1697 80
GlifName: uni06A_1
Width: 1781
VWidth: 2950
GlyphClass: 2
Flags: HW
AnchorPoint: "Anchor-10" 637.853 1628.62 basechar 0
AnchorPoint: "Anchor-7" 620.182 -354.248 basechar 0
LayerCount: 2
Fore
SplineSet
1529 390 m 5
 1468 371 1400 361 1328 361 c 4
 1111 361 1002 452 1002 638 c 4
 1002 846 1126 1041 1328 1041 c 4
 1580 1041 1683 755 1683 461 c 4
 1681 79 1524 0 1127 0 c 6
 837 0 l 2
 350 0 98 162 98 484 c 0
 98 573 118 659 152 738 c 1
 305 681 l 1
 284 625 273 567 273 509 c 0
 273 289 474 180 833 180 c 2
 1148 180 l 6
 1398 180 1529 218 1529 390 c 5
1514 558 m 5
 1497 691 1450 865 1322 865 c 4
 1238 865 1162 775 1162 657 c 4
 1162 573 1222 531 1339 531 c 4
 1397 531 1455 541 1514 558 c 5
EndSplineSet
Validated: 1
Substitution2: "'init' Initial Forms in Arabic lookup 3 subtable" uni06A1.init
Substitution2: "'medi' Medial Forms in Arabic lookup 2 subtable" uni06A1.medi
Substitution2: "'fina' Terminal Forms in Arabic lookup 1 subtable" uni06A1.fina
EndChar

StartChar: uni06A9
Encoding: 1705 1705 81
GlifName: uni06A_9
Width: 1865
VWidth: 2950
GlyphClass: 2
Flags: HW
AnchorPoint: "Anchor-7" 900.268 -226.468 basechar 0
AnchorPoint: "Anchor-10" 1193.88 1344.67 basechar 0
LayerCount: 2
Fore
SplineSet
305 681 m 1
 284 625 273 567 273 509 c 0
 274 289 462 180 830 180 c 2
 1030 180 l 2
 1319 180 1466 244 1466 372 c 0
 1466 439 1432 493 1362 559 c 4
 1260 654 1168 724 1088 787 c 0
 1012 846 975 907 975 972 c 0
 975 1057 1022 1117 1115 1153 c 2
 1805 1409 l 1
 1805 1238 l 1
 1130 988 l 1
 1305 841 1437 731 1515 647 c 4
 1599 555 1642 464 1642 355 c 0
 1642 116 1437 0 1031 0 c 2
 840 0 l 2
 361 0 98 162 98 484 c 0
 98 573 118 659 152 738 c 1
 305 681 l 1
EndSplineSet
Validated: 1
Position2: "Single Positioning lookup 2 subtable" dx=0 dy=0 dh=-226 dv=0
Position2: "Single Positioning lookup 1 subtable" dx=0 dy=0 dh=-219 dv=0
Position2: "Single Positioning lookup 0 subtable" dx=0 dy=0 dh=180 dv=0
Substitution2: "'init' Initial Forms in Arabic lookup 3 subtable" uniFB90
Substitution2: "'medi' Medial Forms in Arabic lookup 2 subtable" uniFB91
Substitution2: "'fina' Terminal Forms in Arabic lookup 1 subtable" uniFB8F
EndChar

StartChar: uni06BA
Encoding: 1722 1722 83
GlifName: afii57514
Width: 1447
VWidth: 2950
GlyphClass: 2
Flags: HW
AnchorPoint: "Anchor-10" 742.458 777.61 basechar 0
AnchorPoint: "Anchor-7" 711.902 -612.086 basechar 0
LayerCount: 2
Fore
SplineSet
1087 539 m 1
 1256 597 l 1
 1318 439 1349 287 1349 140 c 0
 1349 -246 1107 -450 721 -450 c 0
 305 -450 98 -257 98 126 c 0
 98 266 128 409 188 555 c 1
 343 492 l 1
 295 365 270 246 270 131 c 0
 270 -140 423 -277 728 -277 c 0
 1025 -277 1176 -127 1177 170 c 0
 1177 293 1146 416 1087 539 c 1
EndSplineSet
Substitution2: "'fina' Terminal Forms in Arabic lookup 1 subtable" uniFB9F
EndChar

StartChar: uni06F0
Encoding: 1776 1776 86
GlifName: uni06F_0
Width: 902
VWidth: 2655
GlyphClass: 2
Flags: HW
LayerCount: 2
Fore
SplineSet
144.48046875 493 m 0
 144.48046875 661.780273438 282.219726562 799.51953125 451 799.51953125 c 0
 619.780273438 799.51953125 757.51953125 661.780273438 757.51953125 493 c 0
 757.51953125 324.219726562 619.780273438 186.48046875 451 186.48046875 c 0
 282.219726562 186.48046875 144.48046875 324.219726562 144.48046875 493 c 0
299 493 m 0
 299 409 367 340 451 340 c 0
 535 340 603 409 603 493 c 0
 603 577 535 644 451 644 c 0
 367 644 299 577 299 493 c 0
EndSplineSet
PairPos2: "'kern' Horizontal Kerning lookup 4 subtable 1" uni06F2 dx=-100 dy=0 dh=-100 dv=0 dx=0 dy=0 dh=0 dv=0
PairPos2: "'kern' Horizontal Kerning lookup 4 subtable 1" uni06F3 dx=-100 dy=0 dh=-100 dv=0 dx=0 dy=0 dh=0 dv=0
PairPos2: "'kern' Horizontal Kerning lookup 4 subtable 1" uni06F4 dx=-10 dy=0 dh=-10 dv=0 dx=0 dy=0 dh=0 dv=0
PairPos2: "'kern' Horizontal Kerning lookup 4 subtable 1" uni06F7 dx=-100 dy=0 dh=-100 dv=0 dx=0 dy=0 dh=0 dv=0
PairPos2: "'kern' Horizontal Kerning lookup 4 subtable 1" uni06F8 dx=-46 dy=0 dh=-46 dv=0 dx=0 dy=0 dh=0 dv=0
PairPos2: "'kern' Horizontal Kerning lookup 4 subtable 1" uni06F6 dx=-20 dy=0 dh=-20 dv=0 dx=0 dy=0 dh=0 dv=0
EndChar

StartChar: uni06F4
Encoding: 1780 1780 90
GlifName: uni06F_4
Width: 1193
VWidth: 2950
GlyphClass: 2
Flags: HW
LayerCount: 2
Fore
SplineSet
274 1319 m 1
 346 1113 l 2
 405 945 421 933 441 923 c 1
 449 1113 573 1327 801 1327 c 0
 946 1327 1029 1264 1041 1255 c 1
 985 1101 l 1
 951 1118 907 1146 812 1146 c 0
 675 1146 592 1022 592 894 c 0
 592 851 609 844 651 829 c 0
 691 815 741 807 804 807 c 0
 896 807 978 832 1058 864 c 1
 1081 693 l 1xe8
 997 656 917 634 825 634 c 0
 647 634 522 690 439 768 c 1
 464 565 477 384 477 245 c 2
 477 0 l 1
 307 0 l 1
 307 248 l 2
 307 674 244 1006 118 1263 c 1
 274 1319 l 1
EndSplineSet
Substitution2: "'locl' Localized Forms in Arabic lookup 10 subtable" uni06F4.urdu
PairPos2: "'kern' Horizontal Kerning lookup 4 subtable 1" uni06F0 dx=-64 dy=0 dh=-64 dv=0 dx=0 dy=0 dh=0 dv=0
PairPos2: "'kern' Horizontal Kerning lookup 4 subtable 1" uni06F5 dx=-40 dy=0 dh=-40 dv=0 dx=0 dy=0 dh=0 dv=0
PairPos2: "'kern' Horizontal Kerning lookup 4 subtable 1" uni06F8 dx=-64 dy=0 dh=-64 dv=0 dx=0 dy=0 dh=0 dv=0
PairPos2: "'kern' Horizontal Kerning lookup 4 subtable 1" uni06F1 dx=-64 dy=0 dh=-64 dv=0 dx=0 dy=0 dh=0 dv=0
PairPos2: "'kern' Horizontal Kerning lookup 4 subtable 1" uni06F9 dx=-64 dy=0 dh=-64 dv=0 dx=0 dy=0 dh=0 dv=0
EndChar

StartChar: uni06F5
Encoding: 1781 1781 91
GlifName: uni06F_5
Width: 1246
VWidth: 2950
GlyphClass: 2
Flags: HW
LayerCount: 2
Fore
SplineSet
396 170 m 0
 487 170 524 229 561 427 c 1
 685 427 l 1
 718 229 762 170 854 170 c 0
 925 170 966 227 966 324 c 0
 966 529 866 750 617 1010 c 5
 388 708 280 496 280 324 c 0
 280 230 331 170 396 170 c 0
535 1333 m 5
 955 943 1130 631 1130 325 c 0
 1130 101 1029 0 854 0 c 0
 746 0 655 76 623 183 c 1
 594 76 516 0 397 0 c 0
 228 0 116 108 116 325 c 0
 116 586 289 855 491 1130 c 5
 430 1190 l 5
 535 1333 l 5
EndSplineSet
Validated: 1
PairPos2: "'kern' Horizontal Kerning lookup 4 subtable 1" uni06F2 dx=-100 dy=0 dh=-100 dv=0 dx=0 dy=0 dh=0 dv=0
PairPos2: "'kern' Horizontal Kerning lookup 4 subtable 1" uni06F3 dx=-100 dy=0 dh=-100 dv=0 dx=0 dy=0 dh=0 dv=0
PairPos2: "'kern' Horizontal Kerning lookup 4 subtable 1" uni06F4 dx=-42 dy=0 dh=-42 dv=0 dx=0 dy=0 dh=0 dv=0
PairPos2: "'kern' Horizontal Kerning lookup 4 subtable 1" uni06F6 dx=-42 dy=0 dh=-42 dv=0 dx=0 dy=0 dh=0 dv=0
PairPos2: "'kern' Horizontal Kerning lookup 4 subtable 1" uni06F7 dx=-100 dy=0 dh=-100 dv=0 dx=0 dy=0 dh=0 dv=0
PairPos2: "'kern' Horizontal Kerning lookup 4 subtable 1" uni06F8 dx=-38 dy=0 dh=-38 dv=0 dx=0 dy=0 dh=0 dv=0
EndChar

StartChar: uni06F6
Encoding: 1782 1782 92
GlifName: uni06F_6
Width: 1009
VWidth: 2950
GlyphClass: 2
Flags: HW
LayerCount: 2
Fore
SplineSet
907 709 m 5
 621 579 440 340 284 -38 c 1
 128 32 l 1
 230 284 340 446 481 596 c 5
 249 631 133 763 133 909 c 4
 133 1113 285 1320 528 1320 c 4
 592 1320 671 1312 759 1254 c 5
 699 1103 l 5
 624 1141 576 1143 535 1143 c 4
 412 1143 307 1021 307 916 c 4
 307 841 386 758 624 738 c 4
 625.993164062 737.833007812 627 738 630 740 c 5
 722 798 763 823 860 871 c 5
 907 709 l 5
EndSplineSet
Validated: 1
Substitution2: "'locl' Localized Forms in Arabic lookup 10 subtable" uni0666
PairPos2: "'kern' Horizontal Kerning lookup 4 subtable 1" uni06F7 dx=-40 dy=0 dh=-40 dv=0 dx=0 dy=0 dh=0 dv=0
PairPos2: "'kern' Horizontal Kerning lookup 4 subtable 1" uni06F8 dx=-40 dy=0 dh=-40 dv=0 dx=0 dy=0 dh=0 dv=0
PairPos2: "'kern' Horizontal Kerning lookup 4 subtable 1" uni06F9 dx=-30 dy=0 dh=-30 dv=0 dx=0 dy=0 dh=0 dv=0
EndChar

StartChar: uniFB8F
Encoding: 64399 64399 107
GlifName: uniF_B_8F_
Width: 1941
VWidth: 2950
GlyphClass: 2
Flags: HW
AnchorPoint: "Anchor-10" 1193.88 1344.67 basechar 0
AnchorPoint: "Anchor-7" 900.268 -226.468 basechar 0
LayerCount: 2
Fore
SplineSet
305 681 m 1
 284 625 273 567 273 509 c 0
 274 289 461 180 828 180 c 2
 1030 180 l 2
 1319 180 1466 244 1466 373 c 0
 1466 439 1430 494 1361 559 c 4
 1255 658 1164 728 1088 787 c 0
 1012 846 975 907 975 972 c 0
 975 1057 1022 1118 1114 1153 c 2
 1804 1409 l 1
 1804 1238 l 1
 1129 988 l 1
 1301 843 1435 734 1515 647 c 4
 1569 589 1610 524 1643 432 c 0
 1702 265 1799 180 1933 180 c 2
 1961 180 l 1
 1961 0 l 1
 1933 0 l 2
 1787 0 1673 62 1584 179 c 1
 1505 60 1326 0 1030 0 c 2
 838 0 l 2
 360 0 98 162 98 484 c 0
 98 573 118 659 152 738 c 1
 305 681 l 1
EndSplineSet
Validated: 1
EndChar

StartChar: uniFB9F
Encoding: 64415 64415 115
GlifName: uniF_B_9F_
Width: 1528
VWidth: 2950
GlyphClass: 2
Flags: HW
AnchorPoint: "Anchor-10" 720.458 796.61 basechar 0
AnchorPoint: "Anchor-7" 711.902 -739.086 basechar 0
LayerCount: 2
Fore
SplineSet
1177 100 m 0
 1177 222.81820479 1145.47917934 346.045409334 1086.78125 468.84765625 c 1
 1255.71972656 527.438476562 l 1
 1279.84494408 452.08517846 1303.97252049 376.734239242 1328.09863281 301.381835938 c 0
 1354.49316406 220.165039062 1404.60449219 180 1508 180 c 2
 1548 180 l 1
 1548 0 l 1
 1512 0 l 2
 1424.61230469 0 1381.89550781 21.55078125 1342.03320312 58.650390625 c 1
 1336.44140625 -318.474609375 1097.49804688 -520 721 -520 c 0
 304.823242188 -520 97.99609375 -327.864257812 97.99609375 56.2255859375 c 0
 97.99609375 196.372805131 128.190083753 339.708617997 188.083984375 485.396484375 c 1
 343.427734375 421.890625 l 1
 294.954863955 295.183219665 270 175.841291391 270 61 c 0
 270 -211.119140625 423.243164062 -347 728 -347 c 0
 1024.93261719 -347 1175.99609375 -197.956054688 1177 100 c 0
EndSplineSet
EndChar

StartChar: uniFBE8
Encoding: 64488 64488 118
GlifName: uniF_B_E_8
Width: 672
VWidth: 2950
GlyphClass: 2
Flags: HW
AnchorPoint: "Anchor-10" 311.384 1351 basechar 0
AnchorPoint: "Anchor-7" 303.422 -225.625 basechar 0
LayerCount: 2
Fore
SplineSet
526 738 m 1
 557 634 574 513 574 416 c 0
 574 121 433 0 129 0 c 2
 -20 0 l 5
 -20 180 l 5
 129 180 l 2
 326 180 403 219 403 413 c 0
 403 491 389 603 366 698 c 1
 526 738 l 1
EndSplineSet
Validated: 1
EndChar

StartChar: uniFBE9
Encoding: 64489 64489 119
GlifName: uniF_B_E_9
Width: 767
VWidth: 2950
GlyphClass: 2
Flags: HW
AnchorPoint: "Anchor-10" 315.665 1295.09 basechar 0
AnchorPoint: "Anchor-7" 380.537 -179.742 basechar 0
LayerCount: 2
Fore
SplineSet
787 0 m 1
 763 0 l 2
 624.033203125 0 544 49 493 143 c 1
 425 48 297 0 129 0 c 2
 -20 0 l 5
 -20 180 l 5
 131 180 l 2
 329 180 402 227 403 387 c 0
 403 452.239257812 399.204101562 525.9375 395 589 c 1
 559 608 l 1
 575 361 l 2
 583 240 644 180 765 180 c 2
 787 180 l 1
 787 0 l 1
EndSplineSet
Validated: 1
EndChar

StartChar: uniFE73
Encoding: 65139 65139 127
GlifName: uniF_E_73
Width: 672
VWidth: 2950
GlyphClass: 2
Flags: HW
AnchorPoint: "Anchor-10" 342.943 1010.47 basechar 0
AnchorPoint: "Anchor-7" 416.943 -208.304 basechar 0
LayerCount: 2
Fore
SplineSet
298.336914062 424.018554688 m 2
 298.336914062 261.543945312 405.709960938 180.342773438 618.00390625 180.342773438 c 2
 684.674804688 180.342773438 l 1
 686.674804688 180.342773438 l 1
 686.674804688 178.342773438 l 1
 686.674804688 3.5537109375 l 1
 686.674804688 1.5537109375 l 1
 684.674804688 1.5537109375 l 1
 608.008789062 1.5537109375 l 2
 276.401367188 1.8505859375 111.544921875 143.372070312 111.544921875 426.563476562 c 2
 111.544921875 446.69140625 l 1
 111.544921875 448.69140625 l 1
 113.544921875 448.69140625 l 1
 296.336914062 448.69140625 l 1
 298.336914062 448.69140625 l 1
 298.336914062 446.69140625 l 1
 298.336914062 424.018554688 l 2
EndSplineSet
Validated: 1
EndChar

StartChar: uniFE8E
Encoding: 65166 65166 153
GlifName: uniF_E_8E_
Width: 527
VWidth: 2950
GlyphClass: 2
Flags: HW
AnchorPoint: "Anchor-10" 230.697 1501.11 basechar 0
AnchorPoint: "Anchor-7" 292.078 -241.903 basechar 0
LayerCount: 2
Fore
SplineSet
547 0 m 1
 522 0 l 2
 278 0 148 116 148 405 c 2
 148 1366 l 5
 317 1366 l 5
 317 404 l 2
 317 235 390 180 522 180 c 2
 547 180 l 1
 547 0 l 1
EndSplineSet
Validated: 1
EndChar

StartChar: uniFEA2
Encoding: 65186 65186 173
GlifName: uniF_E_A_2
Width: 1378
VWidth: 2950
GlyphClass: 2
Flags: HW
AnchorPoint: "Anchor-7" 690.833 -830.619 basechar 0
AnchorPoint: "Anchor-10" 601.478 1176.07 basechar 0
LayerCount: 2
Fore
SplineSet
1248 -581 m 1
 1114 -645 962 -677 784 -677 c 0
 379 -677 99 -512 99 -151 c 0
 99 170 354 442 836 550 c 1
 811 560 801 564 745 587 c 0
 610 641 524 676 477 676 c 0
 401 676 325 626 276 562 c 2
 249 527 l 1
 98 602 l 1
 113 628 l 2
 197 765 327 854 478 854 c 0
 562 854 663 815 781 758 c 0
 988 657 1113 614 1228 608 c 1
 1224 551 1219 495 1215 438 c 1
 1144 433 1081 425 1020 417 c 1
 1021 228 1127 180 1320 180 c 2
 1398 180 l 1
 1398 0 l 1
 1323 0 l 2
 1027 0 871 95 870 387 c 1
 469 275 265 74 265 -135 c 0
 265 -383 443 -506 798 -506 c 0
 942 -506 1081 -473 1213 -411 c 1
 1248 -581 l 1
EndSplineSet
Validated: 1
EndChar

StartChar: uniFEA3
Encoding: 65187 65187 174
GlifName: uniF_E_A_3
Width: 1334
VWidth: 2950
GlyphClass: 2
Flags: HW
AnchorPoint: "Anchor-10" 591.825 1130.07 basechar 0
AnchorPoint: "Anchor-7" 553.524 -236.745 basechar 0
LayerCount: 2
Fore
SplineSet
-20 0 m 1
 -20 180 l 1
 143 180 l 2
 401.534179688 180 587.094934175 269.984482155 870 416 c 2
 948 457 l 1
 919 466 890 482 763 533 c 0
 628 588 542 622 495 622 c 0
 419 622 343 572 294 508 c 2
 267 473 l 1
 116 548 l 1
 131 574 l 2
 215 711 345 800 496 800 c 0
 580 800 681 761 799 704 c 0
 1006 603 1131 560 1246 554 c 1
 1244 384 l 1
 1163 375 1065 332 861 224 c 0
 617.014957483 95.3229570285 410.334960938 0 140 0 c 6
 -20 0 l 1
EndSplineSet
Validated: 1
Position2: "Single Positioning lookup 2 subtable" dx=0 dy=0 dh=-178 dv=0
Position2: "Single Positioning lookup 1 subtable" dx=0 dy=0 dh=-173 dv=0
EndChar

StartChar: uniFEA4
Encoding: 65188 65188 175
GlifName: uniF_E_A_4
Width: 1351
VWidth: 2950
GlyphClass: 2
Flags: HW
AnchorPoint: "Anchor-10" 591.825 1130.07 basechar 0
AnchorPoint: "Anchor-7" 553.524 -236.745 basechar 0
LayerCount: 2
Fore
SplineSet
1244 384 m 1
 1190 378 1125 363 1042 323 c 1
 1046 222 1134 180 1317 180 c 2
 1371 180 l 1
 1371 0 l 1
 1313 0 l 2
 1068 0 935 74 913 253 c 1
 661.702349573 116.331037007 410.712890625 0 140 0 c 2
 -20 0 l 1
 -20 180 l 1
 143 180 l 2
 401.534179688 180 587.094934175 269.984482155 870 416 c 1
 948 457 l 1
 919 466 890 482 763 533 c 0
 628 588 542 622 495 622 c 0
 419 622 343 572 294 508 c 2
 267 473 l 1
 116 548 l 1
 131 574 l 2
 215 711 345 800 496 800 c 0
 580 800 681 761 799 704 c 0
 1006 603 1131 560 1246 554 c 1
 1244 384 l 1
EndSplineSet
Validated: 1
EndChar

StartChar: uniFEAA
Encoding: 65194 65194 181
GlifName: uniF_E_A_A_
Width: 1055
VWidth: 2950
GlyphClass: 2
Flags: HW
AnchorPoint: "Anchor-7" 401.24 -241.316 basechar 0
AnchorPoint: "Anchor-10" 506.848 1153.53 basechar 0
LayerCount: 2
Fore
SplineSet
98 209.4375 m 1
 177.12758589 190.05358251 240.57299664 181 307 181 c 0
 536.833007812 181 654.006835938 235.486328125 654.006835938 346.581054688 c 0
 654.006835938 379.518554688 624.385742188 462.50390625 562.83984375 606.783203125 c 2
 442.6015625 888.997070312 l 1
 603.916015625 963.298828125 l 1
 812 432 l 2
 889.948242188 233.131835938 952.287109375 180 1033 180 c 2
 1075 180 l 1
 1075 0 l 1
 1033 0 l 2
 920.180664062 0 834.276367188 56.853515625 771.279296875 162.483398438 c 1
 681.157226562 55.783203125 536.599609375 1 322 1 c 0
 230.78864516 1 161.677112218 10.226434171 98 25.5673828125 c 1
 98 209.4375 l 1
EndSplineSet
Validated: 1
EndChar

StartChar: uniFEAE
Encoding: 65198 65198 185
GlifName: uniF_E_A_E_
Width: 860
VWidth: 2142
GlyphClass: 2
Flags: HW
AnchorPoint: "Anchor-7" 322.969 -619.998 basechar 0
AnchorPoint: "Anchor-10" 493.256 848.2 basechar 0
LayerCount: 2
Fore
SplineSet
515 130 m 0
 515 220.863345992 489.058681471 348.369901167 437.678710938 468.840820312 c 1
 599.727539062 527.413085938 l 1
 661.094726562 335.389648438 l 2
 694.326171875 231.669921875 748.15234375 180 841 180 c 2
 880 180 l 1
 880 0 l 1
 852 0 l 2
 749.319335938 0 706.611328125 18.810546875 676.940429688 55.9228515625 c 1
 654.812043137 -250.892442987 441.899414062 -454.712890625 50.25390625 -527.719726562 c 1
 -10.2529296875 -373.524414062 l 1
 338.19140625 -307.140625 512.992409503 -140.087645236 515 130 c 0
EndSplineSet
Validated: 1
EndChar

StartChar: uniFEB2
Encoding: 65202 65202 189
GlifName: uniF_E_B_2
Width: 2553
GlyphClass: 2
Flags: HW
AnchorPoint: "Anchor-7" 710.902 -716.086 basechar 0
AnchorPoint: "Anchor-10" 1770.53 930.1 basechar 0
LayerCount: 2
Fore
SplineSet
1531 0 m 0
 1451.33300781 0 1391.33333333 19.3333333333 1342 58 c 1
 1336.6706707 -320.382379878 1104.02963789 -520 721 -520 c 4
 305.666666667 -520 98 -328 98 56 c 0
 98 196 128 339 188 485 c 1
 343 422 l 1
 294.333333333 293.333333333 270 173 270 61 c 0
 270 -211 422.666666667 -347 728 -347 c 0
 1026.66666667 -347 1176.33333333 -198 1177 100 c 0
 1177 220.666666667 1147 343.666666667 1087 469 c 1
 1256 527 l 1
 1315 344 l 2
 1350.33333333 235.333333333 1417 181 1533 180 c 0
 1665.06738281 180 1718 253.536132812 1718 389 c 0
 1718 421 1714.66699219 480.333007812 1708 567 c 1
 1873 587 l 1
 1889 361 l 2
 1896 259 1943.9375 180 2048 180 c 0
 2140.66699219 180 2187 249.666992188 2187 387 c 0
 2187 431.666992188 2183.66699219 498.666992188 2177 588 c 1
 2342 608 l 1
 2358 361 l 2
 2366 240.333007812 2427.66699219 180 2543 180 c 2
 2573 180 l 1
 2573 0 l 1
 2545 0 l 2
 2414.33300781 0 2321.33300781 45.6669921875 2286 143 c 1
 2235.33300781 45.6669921875 2163 0 2049 0 c 0
 1934.33300781 0 1853.33300781 47.6669921875 1806 143 c 1
 1737.33300781 47.6669921875 1645.66699219 0 1531 0 c 0
EndSplineSet
EndChar

StartChar: uniFEB3
Encoding: 65203 65203 190
GlifName: uniF_E_B_3
Width: 1562
GlyphClass: 2
Flags: HW
AnchorPoint: "Anchor-7" 740.902 -236.086 basechar 0
AnchorPoint: "Anchor-10" 873.03 948.1 basechar 0
LayerCount: 2
Fore
SplineSet
1153 180 m 0
 1244 180 1292 255 1292 402 c 0
 1292 473 1277 561 1248 666 c 1
 1416 711 l 1
 1448 609 1464 511 1464 417 c 0
 1464 188 1382 1 1154 0 c 0
 1039 0 958 48 911 143 c 1
 842 48 751 0 636 0 c 0
 502.996240655 0 415 48 372 143 c 1
 316 47 208 0 49 0 c 2
 -20 0 l 1
 -20 180 l 1
 51 180 l 2
 213 180 293 231 293 389 c 0
 293 423 290 482 283 567 c 1
 448 587 l 1
 464 361 l 2
 472 255 528 180 638 180 c 0
 770 180 823 254 823 389 c 0
 823 421 820 480 813 567 c 1
 978 587 l 1
 994 361 l 2
 1001 259 1049 180 1153 180 c 0
EndSplineSet
Validated: 1
Position2: "Single Positioning lookup 2 subtable" dx=0 dy=0 dh=-178 dv=0
Position2: "Single Positioning lookup 1 subtable" dx=0 dy=0 dh=-173 dv=0
EndChar

StartChar: uniFEB4
Encoding: 65204 65204 191
GlifName: uniF_E_B_4
Width: 1658
GlyphClass: 2
Flags: HW
AnchorPoint: "Anchor-7" 740.902 -236.086 basechar 0
AnchorPoint: "Anchor-10" 873.03 948.1 basechar 0
LayerCount: 2
Fore
SplineSet
372 143 m 1
 316 47 208.333333333 0 49 0 c 2
 -20 0 l 1
 -20 180 l 1
 51 180 l 2
 213.082835873 180 293 231.331606605 293 389 c 0
 293 423 289.666666667 482.333333333 283 567 c 1
 448 587 l 1
 464 361 l 2
 472 255 527.640344587 180 638 180 c 0
 770.067187479 180 823 253.535773607 823 389 c 0
 823 421 819.666666667 480.333333333 813 567 c 1
 978 587 l 1
 994 361 l 2
 1001 259 1048.9375 180 1153 180 c 0
 1245.66699219 180 1292 249.666666667 1292 387 c 0
 1292 431.666666667 1288.66666667 498.666666667 1282 588 c 1
 1447 608 l 1
 1463 361 l 2
 1471 240.333333333 1532.66666667 180 1648 180 c 2
 1678 180 l 1
 1678 0 l 1
 1650 0 l 2
 1519.33333333 0 1426.33300781 45.6669921875 1391 143 c 1
 1340.33300781 45.6669921875 1268 0 1154 0 c 0
 1039.33333333 0 958.333007812 47.6669921875 911 143 c 1
 842.333007812 47.6669921875 750.666666667 0 636 0 c 0
 502.666666667 0.666666666667 414.666992188 47.6669921875 372 143 c 1
EndSplineSet
Validated: 1
EndChar

StartChar: uniFEBA
Encoding: 65210 65210 197
GlifName: uniF_E_B_A_
Width: 2610
VWidth: 2950
GlyphClass: 2
Flags: HW
AnchorPoint: "Anchor-10" 2052.53 1128.1 basechar 0
AnchorPoint: "Anchor-7" 710.902 -716.086 basechar 0
LayerCount: 2
Fore
SplineSet
1753 181 m 2
 2115 181 2299 257 2299 413 c 0
 2299 522 2220 605 2104 605 c 0
 1950 605 1783 457 1605 180 c 1
 1753 181 l 2
1177 100 m 0
 1177 223 1146 346 1087 469 c 1
 1256 527 l 1
 1315 344 l 2
 1342 258 1376 214 1419 209 c 1
 1647 594 1872 787 2096 787 c 0
 2321 787 2477 632 2477 422 c 0
 2477 340 2442 258 2396 196 c 1
 2428 187 2488 180 2600 180 c 2
 2630 180 l 5
 2630 0 l 5
 2601 0 l 2
 2441 0 2330 35 2259 93 c 1
 2154 35 1982 0 1757 0 c 2
 1706 0 l 2
 1537 0 1419 20 1342 57 c 1
 1337 -329 1096 -520 721 -520 c 0
 305 -520 98 -328 98 56 c 0
 98 196 128 339 188 485 c 1
 343 422 l 1
 295 295 270 176 270 61 c 0
 270 -211 423 -347 728 -347 c 0
 1025 -347 1176 -198 1177 100 c 0
EndSplineSet
Validated: 1
EndChar

StartChar: uniFEBB
Encoding: 65211 65211 198
GlifName: uniF_E_B_B_
Width: 1654
VWidth: 2950
GlyphClass: 2
Flags: HW
AnchorPoint: "Anchor-10" 1112.53 1128.1 basechar 0
AnchorPoint: "Anchor-7" 679.209 -242.348 basechar 0
LayerCount: 2
Fore
SplineSet
832 181 m 6
 1194 181 1378 257 1378 413 c 4
 1378 522 1299 605 1183 605 c 4
 1029 605 862 457 684 180 c 5
 832 181 l 6
498 209 m 5
 726 593 951 787 1175 787 c 4
 1400 787 1556 632 1556 422 c 4
 1555 141 1316 0 836 0 c 6
 785 0 l 6
 534 0 389 45 328 143 c 5
 256 46 177 0 20 0 c 2
 -20 0 l 1
 -19 180 l 1
 20 180 l 2
 197 180 243 245 243 388 c 0
 243 448 238 527 235 588 c 1
 399 608 l 5
 417 361 l 6
 424 271 449 222 498 209 c 5
EndSplineSet
Validated: 1
Position2: "Single Positioning lookup 2 subtable" dx=0 dy=0 dh=-178 dv=0
Position2: "Single Positioning lookup 1 subtable" dx=0 dy=0 dh=-173 dv=0
EndChar

StartChar: uniFEBC
Encoding: 65212 65212 199
GlifName: uniF_E_B_C_
Width: 1689
VWidth: 2950
GlyphClass: 2
Flags: HW
AnchorPoint: "Anchor-10" 1112.53 1128.1 basechar 0
AnchorPoint: "Anchor-7" 679.209 -242.348 basechar 0
LayerCount: 2
Fore
SplineSet
832 181 m 1
 1194 181 1378 257 1378 413 c 0
 1378 522 1299 605 1183 605 c 0
 1029 605 862 457 684 180 c 1
 832 181 l 1
498 209 m 1
 727 594 952 787 1176 787 c 0
 1402 787 1556 631 1556 420 c 0
 1556 339 1520 258 1475 196 c 1
 1497 187 1567 180 1679 180 c 2
 1709 180 l 5
 1709 0 l 5
 1679 0 l 2
 1519 0 1409 35 1338 93 c 1
 1233 35 1061 0 836 0 c 2
 785 0 l 2
 537 0 391 45 328 143 c 1
 256 46 177 0 20 0 c 2
 -20 0 l 1
 -20 180 l 1
 19 180 l 2
 197 180 243 246 243 387 c 0
 243 449 238 527 235 588 c 1
 399 608 l 1
 417 361 l 2
 424 271 449 222 498 209 c 1
EndSplineSet
Validated: 1
EndChar

StartChar: uniFEC2
Encoding: 65218 65218 205
GlifName: uniF_E_C_2
Width: 1510
VWidth: 2950
GlyphClass: 2
Flags: HW
AnchorPoint: "Anchor-7" 636.602 -238.453 basechar 0
AnchorPoint: "Anchor-10" 470.36 1496.78 basechar 0
LayerCount: 2
Fore
SplineSet
649 182 m 2
 1011 182 1195 258 1195 414 c 0
 1195 523 1117 606 1001 606 c 0
 847 606 679 458 501 181 c 1
 649 182 l 2
1292 195 m 1
 1304 186 1378 180 1500 180 c 2
 1530 180 l 1
 1530 0 l 1
 1501 0 l 2
 1325 0 1228 38 1161 92 c 1
 1057 38 870 0 653 0 c 2
 98 0 l 1
 98 180 l 1
 320 180 l 1
 344 219 370 258 393 296 c 1
 393 1366 l 5
 562 1366 l 5
 562 536 l 1
 694 700 835 787 992 787 c 0
 1216 787 1372 632 1372 422 c 0
 1372 345 1338 262 1292 195 c 1
EndSplineSet
Validated: 1
EndChar

StartChar: uniFEC3
Encoding: 65219 65219 206
GlifName: uniF_E_C_3
Width: 1293
VWidth: 2950
GlyphClass: 2
Flags: HW
AnchorPoint: "Anchor-7" 481.602 -238.453 basechar 0
AnchorPoint: "Anchor-10" 292.36 1495.78 basechar 0
LayerCount: 2
Fore
SplineSet
471 182 m 2
 833 182 1017 258 1017 414 c 0
 1017 523 938 606 822 606 c 0
 668 606 501 458 323 181 c 1
 471 182 l 2
384 536 m 1
 518 700 662 787 819 787 c 0
 1040 787 1195 629 1195 422 c 0
 1195 141 957 0 476 0 c 2
 -20 0 l 1
 -20 180 l 1
 140 180 l 1
 165 219 191 257 215 295 c 1
 215 1366 l 5
 384 1366 l 5
 384 536 l 1
EndSplineSet
Validated: 1
Position2: "Single Positioning lookup 2 subtable" dx=0 dy=0 dh=-178 dv=0
Position2: "Single Positioning lookup 1 subtable" dx=0 dy=0 dh=-173 dv=0
EndChar

StartChar: uniFEC4
Encoding: 65220 65220 207
GlifName: uniF_E_C_4
Width: 1332
VWidth: 2950
GlyphClass: 2
Flags: HW
AnchorPoint: "Anchor-10" 289.36 1493.78 basechar 0
AnchorPoint: "Anchor-7" 481.602 -238.453 basechar 0
LayerCount: 2
Fore
SplineSet
471 182 m 2
 833 182 1017 258 1017 414 c 0
 1017 523 938 606 822 606 c 0
 668 606 501 458 323 181 c 1
 471 182 l 2
1114 195 m 1
 1126 186 1199 180 1322 180 c 2
 1352 180 l 1
 1352 0 l 1
 1321 0 l 2
 1145 0 1050 39 983 93 c 1
 879 39 693 0 476 0 c 2
 -20 0 l 1
 -20 180 l 1
 142 180 l 1
 166 219 191 258 215 296 c 1
 215 1366 l 5
 384 1366 l 5
 384 536 l 1
 519 700 661 787 816 787 c 0
 1038 787 1195 630 1195 422 c 0
 1195 345 1160 262 1114 195 c 1
EndSplineSet
Validated: 1
EndChar

StartChar: uniFECA
Encoding: 65226 65226 213
GlifName: uniF_E_C_A_
Width: 1199
VWidth: 2950
GlyphClass: 2
Flags: HW
AnchorPoint: "Anchor-7" 610.833 -830.619 basechar 0
AnchorPoint: "Anchor-10" 574.833 1166.24 basechar 0
LayerCount: 2
Fore
SplineSet
265 -198 m 0
 265 -374.604647338 419.511228452 -492.005086451 693.778006203 -492.005086451 c 0
 804.900533076 -492.005086451 918.958867981 -467.603227042 1034 -420 c 1
 1069 -590 l 1
 960 -639 834 -663 689 -663 c 0
 346 -663 98 -506 98 -198 c 0
 98 14 236 184 446 317 c 1
 262 425 168 529 168 629 c 0
 168 782 412 846 616 846 c 0
 824 846 1054 795 1054 633 c 0
 1054 543 952 432 749 305 c 1
 871 223 987 180 1159 180 c 2
 1219 180 l 1
 1219 0 l 1
 1159 0 l 2
 966 0 799 71 602 209 c 1
 399 95 265 -39 265 -198 c 0
604 417 m 1
 784 516 879 583 879 618 c 0
 879 656 789 672 615 672 c 0
 441 672 351 652 351 607 c 0
 351 570 440 506 604 417 c 1
EndSplineSet
EndChar

StartChar: uniFECB
Encoding: 65227 65227 214
GlifName: uniF_E_C_B_
Width: 1057
VWidth: 2950
GlyphClass: 2
Flags: HW
AnchorPoint: "Anchor-10" 550.493 1187.05 basechar 0
AnchorPoint: "Anchor-7" 484.511 -237.021 basechar 0
LayerCount: 2
Fore
SplineSet
959 147 m 1
 641 48 350 0 85 0 c 2
 -20 0 l 1
 -20 180 l 1
 277 180 l 1
 221 251 171 325 171 446 c 0
 171 676 330 869 585 869 c 0
 726 869 838 823 928 732 c 1
 862 585 l 1
 779 652 699 686 617 687 c 0
 457 687 341 578 341 440 c 0
 341 402 360 286 494 226 c 0
 502 222 518 216 531 219 c 2
 959 327 l 1
 959 147 l 1
EndSplineSet
Position2: "Single Positioning lookup 2 subtable" dx=0 dy=0 dh=-178 dv=0
Position2: "Single Positioning lookup 1 subtable" dx=0 dy=0 dh=-173 dv=0
EndChar

StartChar: uniFEDA
Encoding: 65242 65242 229
GlifName: uniF_E_D_A_
Width: 1891
VWidth: 2950
GlyphClass: 2
Flags: HW
AnchorPoint: "Anchor-10" 916.11 1240.05 basechar 0
AnchorPoint: "Anchor-7" 900.268 -226.468 basechar 0
LayerCount: 2
Fore
SplineSet
708 588 m 5
 770 581 794 577 839 577 c 4
 939 577 1025 577 1025 660 c 4
 1025 721 989.73046875 727.703125 922 728 c 4
 832.982421875 728.390625 753 774 753 909 c 4
 753 1018.99121094 822.397460938 1100.578125 972.252929688 1100.578125 c 4
 1004.96289062 1100.578125 1041.50683594 1097.16699219 1082 1090 c 5
 1082 995 l 5
 1041.23339844 1000.68847656 1006.30957031 1003.39941406 976.748046875 1003.39941406 c 4
 881.5859375 1003.39941406 842 965.3046875 842 918 c 4
 842 866 865.876953125 832.399414062 940 832 c 4
 1067.76171875 831.3125 1113 782 1113 664 c 4
 1113 521 1029 479 846 479 c 4
 794 479 774 484 708 494 c 5
 708 588 l 5
978 180 m 2
 1451 180 1514 276 1514 470 c 6
 1514 1366 l 5
 1683 1366 l 5
 1683 472 l 6
 1683 278 1705 180 1876 180 c 6
 1911 180 l 5
 1911 0 l 5
 1878 0 l 6
 1691 0 1620 59 1583 180 c 5
 1452 38 1326 -4.17604558509e-14 985 0 c 2
 840 0 l 2
 361 0 98 162 98 484 c 0
 98 573 118 659 152 738 c 1
 305 681 l 1
 284 625 273 567 273 509 c 0
 274 289 462 180 830 180 c 2
 978 180 l 2
EndSplineSet
Validated: 1
EndChar

StartChar: uniFEDB
Encoding: 65243 65243 230
GlifName: uniF_E_D_B_
Width: 950
VWidth: 2950
GlyphClass: 2
Flags: HW
AnchorPoint: "Anchor-10" 327.533 1370.15 basechar 0
AnchorPoint: "Anchor-7" 310.991 -233.935 basechar 0
LayerCount: 2
Fore
SplineSet
215 988 m 1
 387 843 519 734 600 647 c 4
 685 555 726 465 726 356 c 0
 726 116 559 0 166 0 c 2
 -20 0 l 1
 -20 180 l 1
 165 180 l 2
 440 180 551 244 551 373 c 0
 551 439 515 494 446 559 c 4
 344 654 253 724 173 787 c 0
 97 846 60 907 60 972 c 0
 60 1057 107 1118 199 1153 c 2
 889 1409 l 1
 889 1238 l 1
 215 988 l 1
EndSplineSet
Validated: 1
Position2: "Single Positioning lookup 2 subtable" dx=0 dy=0 dh=-226 dv=0
Position2: "Single Positioning lookup 1 subtable" dx=0 dy=0 dh=-219 dv=0
Position2: "Single Positioning lookup 0 subtable" dx=0 dy=0 dh=180 dv=0
EndChar

StartChar: uniFEDC
Encoding: 65244 65244 231
GlifName: uniF_E_D_C_
Width: 1027
VWidth: 2950
GlyphClass: 2
Flags: HW
AnchorPoint: "Anchor-10" 327.533 1370.15 basechar 0
AnchorPoint: "Anchor-7" 310.991 -233.935 basechar 0
LayerCount: 2
Fore
SplineSet
669 179 m 1
 591 60 449 0 166 0 c 2
 -20 0 l 1
 -20 180 l 1
 165 180 l 2
 440 180 551 244 551 373 c 0
 551 439 515 494 446 559 c 4
 344 654 253 724 173 787 c 0
 97 846 60 907 60 972 c 0
 60 1057 107 1118 199 1153 c 2
 889 1409 l 1
 889 1238 l 1
 215 988 l 1
 387 843 519 734 600 647 c 4
 654 589 696 523 728 432 c 0
 787 265 884 180 1018 180 c 2
 1047 180 l 1
 1047 0 l 1
 1018 0 l 2
 871 0 757 62 669 179 c 1
EndSplineSet
Validated: 1
EndChar

StartChar: uniFEDE
Encoding: 65246 65246 233
GlifName: uniF_E_D_E_
Width: 1439
VWidth: 2950
GlyphClass: 2
Flags: HW
AnchorPoint: "Anchor-7" 662.902 -708.086 basechar 0
AnchorPoint: "Anchor-10" 654.908 1005.66 basechar 0
LayerCount: 2
Fore
SplineSet
335 358 m 1
 291 246 269 151 269 36 c 0
 269 -219 405 -347 675 -347 c 0
 930 -347 1059 -208 1059 68 c 2
 1061 1364 l 5
 1061 1366 l 5
 1229 1366 l 5
 1228 393 l 2
 1228 251 1275 180 1428 180 c 2
 1459 180 l 1
 1459 0 l 1
 1430 0 l 2
 1322 0 1280 28 1228 78 c 1
 1223 -312 1043 -520 674 -520 c 0
 289 -520 98 -336 98 35 c 0
 98 171 125 288 180 421 c 1
 335 358 l 1
EndSplineSet
Validated: 1
EndChar

StartChar: uniFEDF
Encoding: 65247 65247 234
GlifName: uniF_E_D_F_
Width: 608
VWidth: 2950
GlyphClass: 2
Flags: HW
AnchorPoint: "Anchor-10" 365.751 1500.65 basechar 0
AnchorPoint: "Anchor-7" 259.812 -238.234 basechar 0
LayerCount: 2
Fore
SplineSet
-20 0 m 1
 -20 180 l 1
 61 180 l 2
 240 180 291 255 291 403 c 2
 291 1366 l 5
 460 1366 l 5
 460 404 l 2
 460 139 356 0 60 0 c 2
 -20 0 l 1
EndSplineSet
Validated: 1
Position2: "Single Positioning lookup 2 subtable" dx=0 dy=0 dh=-143 dv=0
Position2: "Single Positioning lookup 1 subtable" dx=0 dy=0 dh=-104 dv=0
Position2: "Single Positioning lookup 0 subtable" dx=0 dy=0 dh=130 dv=0
EndChar

StartChar: uniFEE0
Encoding: 65248 65248 235
GlifName: uniF_E_E_0
Width: 670
VWidth: 2950
GlyphClass: 2
Flags: HW
AnchorPoint: "Anchor-7" 259.812 -238.234 basechar 0
AnchorPoint: "Anchor-10" 364.751 1500.65 basechar 0
LayerCount: 2
Fore
SplineSet
368 143 m 1
 302 49 213 0 43 0 c 6
 -20 0 l 5
 -20 180 l 5
 45 180 l 6
 223 180 290 250 291 389 c 2
 291 1366 l 1
 460 1366 l 1
 460 389 l 2
 460 250 513 180 658 180 c 2
 690 180 l 1
 690 0 l 1
 660 0 l 2
 514 0 436 50 368 143 c 1
EndSplineSet
Validated: 1
EndChar

StartChar: uniFEE2
Encoding: 65250 65250 237
GlifName: uniF_E_E_2
Width: 1296
VWidth: 2620
GlyphClass: 2
Flags: HW
AnchorPoint: "Anchor-10" 763.952 1020.2 basechar 0
AnchorPoint: "Anchor-7" 714.983 -338.909 basechar 0
LayerCount: 2
Fore
SplineSet
112 -655 m 5
 105 -538 101 -438 101 -333 c 4
 101 14 140 281 385 329 c 1
 484 578 616 701 780 701 c 0
 982 701 1086 560 1125 370 c 0
 1152 245 1206 180 1288 180 c 2
 1316 180 l 1
 1316 0 l 1
 1288 0 l 2
 1205 0 1133 31 1084 104 c 1
 1032 15 962 -23 846 -23 c 0
 768 -23 689 4 598 59 c 0
 566 79 532 97 495 116 c 0
 466 131 439 138 419 138 c 0
 315 137 274 -7 274 -305 c 4
 274 -436 279 -548 288 -655 c 5
 112 -655 l 5
559 296 m 1
 679 203 774 155 842 155 c 0
 924 156 964 203 964 295 c 0
 964 418 895 516 780 516 c 0
 684 516 611 440 559 296 c 1
EndSplineSet
Validated: 1
EndChar

StartChar: uniFEE3
Encoding: 65251 65251 238
GlifName: uniF_E_E_3
Width: 1048
VWidth: 2950
GlyphClass: 2
Flags: HW
AnchorPoint: "Anchor-10" 583.952 1020.2 basechar 0
AnchorPoint: "Anchor-7" 514.594 -237.063 basechar 0
LayerCount: 2
Fore
SplineSet
388 306 m 1
 476 205 560 153 641 153 c 0
 736 153 783 200 783 292 c 0
 783 423 714 515 601 515 c 0
 508 515 437 444 388 306 c 1
303 144 m 1
 221 50 129 0 23 0 c 2
 -20 0 l 5
 -20 180 l 5
 18 180 l 2
 139 180 206 301 256 411 c 0
 344 605 456 701 597 701 c 0
 811 701 950 519 950 307 c 0
 950 99 847 -22 655 -22 c 0
 525 -22 417 35 303 144 c 1
EndSplineSet
Validated: 1
Position2: "Single Positioning lookup 2 subtable" dx=0 dy=0 dh=-178 dv=0
Position2: "Single Positioning lookup 1 subtable" dx=0 dy=0 dh=-173 dv=0
EndChar

StartChar: uniFEE4
Encoding: 65252 65252 239
GlifName: uniF_E_E_4
Width: 1111
VWidth: 2950
GlyphClass: 2
Flags: HW
AnchorPoint: "Anchor-10" 582.952 1020.2 basechar 0
AnchorPoint: "Anchor-7" 533.594 -237.063 basechar 0
LayerCount: 2
Fore
SplineSet
387 306 m 1
 474 205 558 153 644 153 c 0
 738 153 785 199 785 288 c 0
 785 417 712 515 596 515 c 0
 505 515 436 443 387 306 c 1
905 104 m 1
 847 15 772 -22 652 -22 c 0
 528 -22 412 35 302 144 c 1
 220 50 128 0 22 0 c 2
 -20 0 l 5
 -20 180 l 5
 17 180 l 2
 140 180 207 303 255 411 c 0
 342 604 455 701 596 701 c 0
 798 701 906 551 944 370 c 0
 970 245 1024 180 1104 180 c 2
 1131 180 l 1
 1131 0 l 1
 1103 0 l 2
 1023 0 954 31 905 104 c 1
EndSplineSet
Validated: 1
EndChar

StartChar: uniFEEA
Encoding: 65258 65258 245
GlifName: uniF_E_E_A_
Width: 1038
VWidth: 2950
GlyphClass: 2
Flags: HW
AnchorPoint: "Anchor-10" 662.464 1222.36 basechar 0
AnchorPoint: "Anchor-7" 469.642 -236.09 basechar 0
LayerCount: 2
Fore
SplineSet
98 412 m 0
 98 608 262 758 605 864 c 1
 598 909 l 1
 757 942 l 1
 839 353 l 2
 854 243 918 180 1027 180 c 2
 1058 180 l 1
 1058 0 l 1
 1023 0 l 2
 837 0 735 85 701 237 c 1
 621 168 532 132 431 132 c 0
 248 132 98 218 98 412 c 0
631 703 m 1
 395 616 272 529 272 424 c 0
 272 342 327 300 425 300 c 0
 536 300 661 368 661 482 c 0
 661 501 660 519 657 539 c 2
 631 703 l 1
EndSplineSet
Validated: 1
EndChar

StartChar: uniFEEB
Encoding: 65259 65259 246
GlifName: uniF_E_E_B_
Width: 1369
VWidth: 2950
GlyphClass: 2
Flags: HW
AnchorPoint: "Anchor-10" 609.134 1202.79 basechar 0
AnchorPoint: "Anchor-7" 510.852 -239.953 basechar 0
LayerCount: 2
Fore
SplineSet
503 240 m 5
 616 285 674 374 675 463 c 4
 675 573 607 632 504 632 c 4
 396 632 323 568 323 468 c 4
 323 375 384 285 503 240 c 5
585 951 m 5
 1043 728 1271 538 1271 353 c 4
 1271 126 1114 10 879 10 c 4
 747 10 576 46 485 77 c 5
 375 36 213 0 75 0 c 6
 -20 0 l 5
 -20 180 l 5
 63 180 l 6
 151 180 206 181 280 190 c 5
 194 262 153 347 153 466 c 4
 153 666 311 787 495 787 c 4
 524 787 553 784 580 777 c 5
 509 813 l 5
 585 951 l 5
728 699 m 5
 801 635 825 576 825 483 c 4
 825 362 776 263 689 186 c 5
 743 179 813 175 862 175 c 4
 1015 175 1096 230 1096 350 c 4
 1096 445 971 562 728 699 c 5
EndSplineSet
Validated: 1
Position2: "Single Positioning lookup 2 subtable" dx=0 dy=0 dh=-178 dv=0
Position2: "Single Positioning lookup 1 subtable" dx=0 dy=0 dh=-173 dv=0
EndChar

StartChar: uniFEEC
Encoding: 65260 65260 247
GlifName: uniF_E_E_C_
Width: 1002
VWidth: 2950
GlyphClass: 2
Flags: HW
AnchorPoint: "Anchor-7" 597.16 -709.603 basechar 0
AnchorPoint: "Anchor-10" 551.648 1135.04 basechar 0
LayerCount: 2
Fore
SplineSet
616 -540 m 5
 389 -432 259 -253 217 0 c 5
 -20 0 l 5
 -20 180 l 5
 204 180 l 5
 221 521 291 796 548 796 c 4
 711 796 810 670 810 487 c 4
 810 247 603 6 376 -1 c 5
 401 -143 469 -246 585 -321 c 5
 585 -7 718 180 988 180 c 6
 1022 180 l 5
 1022 0 l 5
 986 0 l 6
 817 0 733 -110 733 -330 c 4
 733 -358 734 -391 737 -422 c 5
 616 -540 l 5
367 179 m 5
 523 184 651 319 651 487 c 4
 651 576 607 622 546 622 c 4
 432 622 381 474 367 179 c 5
EndSplineSet
Validated: 1
EndChar

StartChar: uniFEFB
Encoding: 65275 65275 262
GlifName: uniF_E_F_B_
Width: 1212
VWidth: 2950
GlyphClass: 3
Flags: HW
AnchorPoint: "Anchor-9" 221.642 1446.64 baselig 1
AnchorPoint: "Anchor-6" 288.021 -244.333 baselig 1
AnchorPoint: "Anchor-6" 925.078 -240.55 baselig 0
AnchorPoint: "Anchor-9" 975.01 1497.81 baselig 0
LayerCount: 2
Fore
SplineSet
175 196 m 1
 253 186 326 181 399 181 c 0
 434 181 471 182 503 184 c 1
 435 419 313 758 110 1224 c 1
 259 1305 l 1
 460 820 584 473 662 218 c 1
 818 269 895 366 895 598 c 2
 895 1366 l 1
 1064 1366 l 1
 1064 597 l 2
 1064 174 841 3 396 3 c 4
 305 3 232 9 175 19 c 1
 175 196 l 1
EndSplineSet
Validated: 1
Position2: "Single Positioning lookup 2 subtable" dx=0 dy=0 dh=-143 dv=0
Position2: "Single Positioning lookup 1 subtable" dx=0 dy=0 dh=-104 dv=0
Position2: "Single Positioning lookup 0 subtable" dx=0 dy=0 dh=130 dv=0
PairPos2: "'kern' Horizontal Kerning lookup 4 subtable 0" uni0639 dx=-60 dy=0 dh=-60 dv=0 dx=0 dy=0 dh=0 dv=0
PairPos2: "'kern' Horizontal Kerning lookup 4 subtable 0" uni063A dx=-60 dy=0 dh=-60 dv=0 dx=0 dy=0 dh=0 dv=0
LCarets2: 1 0
Ligature2: "'rlig' Required Ligatures in Arabic lookup 5 subtable" uniFEDF uniFE8E
EndChar

StartChar: uniFEFC
Encoding: 65276 65276 263
GlifName: uniF_E_F_C_
Width: 1273
VWidth: 2950
GlyphClass: 3
Flags: HW
AnchorPoint: "Anchor-9" 974.01 1497.81 baselig 0
AnchorPoint: "Anchor-9" 221.642 1448.64 baselig 1
AnchorPoint: "Anchor-6" 925.078 -240.55 baselig 0
AnchorPoint: "Anchor-6" 288.021 -244.333 baselig 1
LayerCount: 2
Fore
SplineSet
259 1305 m 1
 460 820 584 473 662 218 c 1
 818 269 895 366 895 598 c 2
 895 1366 l 1
 1064 1366 l 1
 1064 547 l 2
 1064 304 1115 180 1257 180 c 2
 1293 180 l 1
 1293 0 l 1
 1254 0 l 2
 1089 0 1001 77 956 229 c 1
 845 79 664 3 396 3 c 0
 305 3 232 9 175 19 c 1
 175 196 l 1
 251 186 325 181 398 181 c 0
 433 181 470 182 503 184 c 1
 434 417 312 756 110 1224 c 1
 259 1305 l 1
EndSplineSet
Validated: 1
PairPos2: "'kern' Horizontal Kerning lookup 4 subtable 0" uni0639 dx=-60 dy=0 dh=-60 dv=0 dx=0 dy=0 dh=0 dv=0
PairPos2: "'kern' Horizontal Kerning lookup 4 subtable 0" uni063A dx=-60 dy=0 dh=-60 dv=0 dx=0 dy=0 dh=0 dv=0
LCarets2: 1 0
Ligature2: "'rlig' Required Ligatures in Arabic lookup 5 subtable" uniFEE0 uniFE8E
EndChar

StartChar: arabic_dot
Encoding: 65536 -1 264
GlifName: arabic_dot
Width: 189
VWidth: 2682
GlyphClass: 2
Flags: HW
LayerCount: 2
Fore
SplineSet
-54.1715682454 97.8496140048 m 5
 91.2001953125 243.221377564 l 5
 237.521186909 96.9003859656 l 5
 92.1503813358 -48.4713775331 l 5
 -54.1715682454 97.8496140048 l 5
EndSplineSet
Validated: 1
EndChar

StartChar: arabic_2dots
Encoding: 65537 -1 265
GlifName: arabic_2dots
Width: 504
VWidth: 2682
GlyphClass: 2
Flags: HW
LayerCount: 2
Fore
SplineSet
271 98 m 1
 411 238 l 1
 552 98 l 1
 411 -44 l 1
 271 98 l 1
-61 98 m 1
 79 238 l 1
 220 98 l 1
 79 -44 l 1
 -61 98 l 1
EndSplineSet
Validated: 1
EndChar

StartChar: arabic_3dots
Encoding: 65538 -1 266
GlifName: arabic_3dots
Width: 504
VWidth: 2675
GlyphClass: 2
Flags: HW
LayerCount: 2
Fore
SplineSet
111 325 m 5
 243 457 l 5
 376 325 l 5
 243 192 l 5
 111 325 l 5
283 63 m 1
 415 195 l 1
 548 63 l 1
 415 -70 l 1
 283 63 l 1
-57 63 m 1
 75 195 l 1
 208 63 l 1
 75 -70 l 1
 -57 63 l 1
EndSplineSet
Validated: 1
EndChar

StartChar: arabic_3dots_a
Encoding: 65539 -1 267
GlifName: arabic_3dots_a
Width: 504
VWidth: 2689
GlyphClass: 2
Flags: HW
LayerCount: 2
Fore
SplineSet
112 -134 m 1
 244 -1 l 1
 377 -134 l 1
 244 -266 l 1
 112 -134 l 1
284 128 m 1
 416 261 l 1
 549 128 l 1
 416 -4 l 1
 284 128 l 1
-56 128 m 1
 76 261 l 1
 209 128 l 1
 76 -4 l 1
 -56 128 l 1
EndSplineSet
Validated: 1
EndChar

StartChar: uni066E.fina
Encoding: 65540 -1 268
GlifName: uni066E_.fina
Width: 1878
VWidth: 2950
GlyphClass: 2
Flags: HW
AnchorPoint: "Anchor-10" 892.51 1425.59 basechar 0
AnchorPoint: "Anchor-7" 795.357 -259.261 basechar 0
LayerCount: 2
Fore
SplineSet
985 0 m 2
 840 0 l 2
 361 0 98 162 98 484 c 0
 98 573 118 659 152 738 c 1
 305 681 l 1
 284 625 273 567 273 509 c 0
 274 289 462 180 830 180 c 2
 980 180 l 2
 1237 180 1407 221 1480 309 c 0
 1502.12597656 335.672851562 1515 375 1515 432 c 0
 1515 485 1511 538 1508 588 c 1
 1669 608 l 1
 1685 360 l 2
 1693 240 1750 180 1873 180 c 2
 1898 180 l 5
 1898 0 l 5
 1873 0 l 2
 1730 0 1636 60 1576 178 c 1
 1462 58 1255 0 985 0 c 2
EndSplineSet
Validated: 1
EndChar

StartChar: uni06A1.fina
Encoding: 65543 -1 269
GlifName: uni06A_1.fina
Width: 1962
VWidth: 2950
GlyphClass: 2
Flags: HW
AnchorPoint: "Anchor-10" 713.816 1571.03 basechar 0
AnchorPoint: "Anchor-7" 590.121 -311.592 basechar 0
LayerCount: 2
Fore
SplineSet
1501 681 m 0
 1437 681 1329 557 1329 490 c 0
 1329 425 1445 270 1506 270 c 0
 1572 270 1685 429 1685 498 c 0
 1685 554 1586 681 1501 681 c 0
960 180 m 2
 1219 180 1276 183 1319 194 c 1
 1216 297 1161 381 1161 496 c 0
 1161 634 1322 856 1503 856 c 0
 1694 856 1854 654 1854 511 c 0
 1854 385 1798 306 1694 194 c 1
 1727 183 1770 180 1888 180 c 2
 1982 180 l 5
 1982 0 l 5
 1890 0 l 2
 1715 0 1601 37 1503 109 c 1
 1392 34 1213 -3.03712406189e-14 965 0 c 2
 840 0 l 2
 361 0 98 161.573242188 98 484 c 0
 98 573.169766701 117.600381642 659.663904135 152.061523438 738.463867188 c 1
 305.407226562 680.837890625 l 1
 284.101315399 624.394882874 273 566.699196468 273 508.990234375 c 0
 274.0078125 289.258789062 462 180 830 180 c 2
 960 180 l 2
EndSplineSet
Validated: 1
EndChar

StartChar: uni06A1.init
Encoding: 65544 -1 270
GlifName: uni06A_1.init
Width: 918
VWidth: 2950
GlyphClass: 2
Flags: HW
AnchorPoint: "Anchor-10" 447.443 1604.02 basechar 0
AnchorPoint: "Anchor-7" 367.886 -247.023 basechar 0
LayerCount: 2
Fore
SplineSet
667 391 m 1
 605 372 538 362 466 362 c 0
 250 362 141 451 139 631 c 0
 139 853 260 1042 466 1042 c 0
 717 1042 820 759 820 462 c 0
 820 80 662 0 265 0 c 2
 -20 0 l 5
 -20 180 l 5
 276 180 l 2
 526 180 665 218 667 391 c 1
651 559 m 1
 635 694 588 866 459 866 c 0
 374 866 300 775 300 658 c 0
 300 573 361 532 479 532 c 0
 536 532 594 542 651 559 c 1
EndSplineSet
Validated: 1
EndChar

StartChar: uni06A1.medi
Encoding: 65545 -1 271
GlifName: uni06A_1.medi
Width: 972
VWidth: 2950
GlyphClass: 2
Flags: HW
AnchorPoint: "Anchor-10" 532.544 1386.06 basechar 0
AnchorPoint: "Anchor-7" 507.517 -247.023 basechar 0
LayerCount: 2
Fore
SplineSet
511 681 m 0
 447 681 339 557 339 490 c 0
 339 425 455 270 516 270 c 0
 582 270 695 429 695 498 c 0
 695 554 595 681 511 681 c 0
704 194 m 1
 736 182 793 180 898 180 c 2
 992 180 l 5
 992 0 l 5
 900 0 l 2
 738 0 611 37 513 109 c 1
 414 36 282 0 114 0 c 2
 -20 0 l 1
 -20 180 l 1
 114 180 l 2
 241 180 303 183 328 195 c 1
 225 298 171 381 171 496 c 0
 171 634 331 856 512 856 c 0
 703 856 864 654 864 511 c 0
 864 395 808 297 704 194 c 1
EndSplineSet
Validated: 1
EndChar

StartChar: uni066F.fina
Encoding: 65546 -1 272
GlifName: uni066F_.fina
Width: 1450
VWidth: 2950
GlyphClass: 2
Flags: HW
AnchorPoint: "Anchor-10" 758.297 999.41 basechar 0
AnchorPoint: "Anchor-7" 713.744 -698.409 basechar 0
LayerCount: 2
Fore
SplineSet
343 422 m 1
 295 295 270 176 270 61 c 0
 270 -211 419 -347 728 -347 c 0
 1039 -347 1152 -231 1174 1 c 1
 1023 1 l 2
 780 1 659 99 659 297 c 0
 659 525 797 721 993 721 c 0
 1195 721 1309 541 1340 180 c 1
 1470 180 l 5
 1470 0 l 5
 1338 0 l 1
 1299 -346 1130 -520 721 -520 c 0
 302 -520 98 -328 98 56 c 0
 98 196 128 339 188 485 c 1
 343 422 l 1
1176 181 m 1
 1161 415 1098 536 979 536 c 0
 889 536 824 427 824 312 c 0
 824 225 888 181 1013 181 c 2
 1176 181 l 1
EndSplineSet
Validated: 1
EndChar

StartChar: arabic_gaf_bar
Encoding: 65550 -1 273
GlifName: arabic_gaf_bar
Width: 751
VWidth: 2769
GlyphClass: 2
Flags: HW
LayerCount: 2
Fore
SplineSet
735 1831.37207031 m 1
 8 1560.91503906 l 1
 8 1661.62792969 l 5
 735 1932.08496094 l 5
 735 1831.37207031 l 1
EndSplineSet
Validated: 1
EndChar

StartChar: guillemotleft
Encoding: 171 171 283
GlifName: guillemotleft
Width: 946
Flags: HW
LayerCount: 2
Fore
SplineSet
488 455 m 0
 488 546 534 722 724 933 c 1
 816 849 l 1
 666 656 645 527 645 456 c 0
 645 378 664 258 816 61 c 1
 724 -23 l 1
 535 188 488 364 488 455 c 0
110 455 m 0
 110 546 156 722 346 933 c 1
 438 849 l 1
 288 656 267 527 267 456 c 0
 267 378 286 258 438 61 c 1
 346 -23 l 1
 157 188 110 364 110 455 c 0
EndSplineSet
EndChar

StartChar: guillemotright
Encoding: 187 187 284
GlifName: guillemotright
Width: 946
Flags: HW
LayerCount: 2
Fore
SplineSet
458 455 m 0
 458 364 411 188 222 -23 c 1
 130 61 l 1
 282 258 301 378 301 456 c 0
 301 527 280 656 130 849 c 1
 222 933 l 1
 412 722 458 546 458 455 c 0
836 455 m 0
 836 364 789 188 600 -23 c 1
 508 61 l 1
 660 258 679 378 679 456 c 0
 679 527 658 656 508 849 c 1
 600 933 l 1
 790 722 836 546 836 455 c 0
EndSplineSet
EndChar

StartChar: NameMe.302
Encoding: 65562 -1 293
GlifName: N_ameM_e.302
Width: 525
VWidth: 2950
Flags: HW
LayerCount: 2
Fore
SplineSet
271 123 m 1
 223 28 144 0 22 0 c 2
 -19 0 l 1
 -19 180 l 1
 24 180 l 2
 179 180 188 262 188 429 c 2
 188 1049 l 5
 357 1049 l 5
 357 429 l 2
 357 263 365 180 502 180 c 2
 544 180 l 1
 544 0 l 1
 505 0 l 2
 388 0 320 30 271 123 c 1
EndSplineSet
Validated: 1
EndChar

StartChar: NameMe.303
Encoding: 65563 -1 294
GlifName: N_ameM_e.303
Width: 487
VWidth: 2950
Flags: HW
LayerCount: 2
Fore
SplineSet
-19 0 m 1
 -19 180 l 1
 11 180 l 2
 143 180 170 262 170 403 c 2
 170 1202 l 5
 339 1202 l 5
 339 405 l 2
 339 147 259 0 10 0 c 2
 -19 0 l 1
EndSplineSet
Validated: 1
EndChar

StartChar: NameMe.65564
Encoding: 65564 -1 297
GlifName: N_ameM_e.65564
Width: 527
VWidth: 2950
Flags: HW
AnchorPoint: "Anchor-10" 232.697 1296.11 basechar 0
AnchorPoint: "Anchor-7" 292.078 -241.903 basechar 0
LayerCount: 2
Fore
SplineSet
546 0 m 1
 522 0 l 2
 278 0 148 115 148 404 c 2
 148 1167 l 5
 317 1167 l 5
 317 404 l 2
 317 235 390 180 522 180 c 2
 546 180 l 1
 546 0 l 1
EndSplineSet
Validated: 1
EndChar

StartChar: NameMe.65565
Encoding: 65565 -1 298
GlifName: N_ameM_e.65565
Width: 716
VWidth: 2957
Flags: HW
LayerCount: 2
Fore
SplineSet
115 -277 m 1
 156 -286 197 -290 233 -290 c 0
 339 -290 412 -272 452 -240 c 0
 483 -215 498 -189 498 -162 c 0
 498 -148 488 -139 463 -138 c 2
 363 -136 l 2
 284 -134 244 -93 244 -13 c 0
 244 159 418 246 620 248 c 1
 611 118 l 1
 453 115 378 75 368 -9 c 1
 477 -13 l 2
 567 -15 620 -61 620 -151 c 0
 620 -205 595 -258 548 -310 c 0
 482 -382 375 -418 226 -418 c 0
 185 -418 141 -414 96 -407 c 1
 115 -277 l 1
EndSplineSet
Validated: 1
EndChar

StartChar: uni060D
Encoding: 1549 1549 299
Width: 828
VWidth: 4036
Flags: HW
LayerCount: 2
Fore
SplineSet
611 1457 m 5
 754 1414 l 5
 198 -211 l 5
 55 -168 l 5
 611 1457 l 5
EndSplineSet
Validated: 1
EndChar

StartChar: NameMe.65541
Encoding: 65541 -1 300
Width: 592
VWidth: 2950
Flags: HW
AnchorPoint: "Anchor-10" 261.384 1351 basechar 0
AnchorPoint: "Anchor-7" 253.422 -225.625 basechar 0
LayerCount: 2
Fore
SplineSet
446 738 m 1
 477 634 494 513 494 416 c 0
 494 149 361 0 99 0 c 2
 -20 0 l 5
 -20 180 l 5
 99 180 l 2
 254 180 323 246 323 413 c 0
 323 491 309 603 286 698 c 1
 446 738 l 1
EndSplineSet
Validated: 1
EndChar

StartChar: NameMe.65542
Encoding: 65542 -1 301
Width: 687
VWidth: 2950
Flags: HW
AnchorPoint: "Anchor-10" 265.665 1295.09 basechar 0
AnchorPoint: "Anchor-7" 320.537 -179.742 basechar 0
LayerCount: 2
Fore
SplineSet
707 0 m 5
 683 0 l 2
 548 0 463 49 412 143 c 1
 344 49 234 0 101 0 c 2
 -20 0 l 1
 -20 180 l 1
 101 180 l 2
 261 180 323 248 323 397 c 0
 323 459 318 527 315 588 c 1
 479 608 l 1
 495 362 l 2
 503 241 564 180 685 180 c 2
 707 180 l 5
 707 0 l 5
EndSplineSet
Validated: 1
EndChar

StartChar: uniFBFD.compact
Encoding: 65575 -1 321
Width: 1437
VWidth: 2703
Flags: HW
AnchorPoint: "Anchor-7" 718.902 -698.086 basechar 0
AnchorPoint: "Anchor-10" 681.6 653.22 basechar 0
LayerCount: 2
Fore
SplineSet
324 365 m 1
 288 265 270 164 270 60 c 0
 270 -210 420 -347 719 -347 c 0
 957 -347 1204 -242 1204 -107 c 0
 1204 -48 1148 0 1040 0 c 2
 917 0 l 2
 878 0 860 27 852 62 c 2
 830 154 l 2
 826 172 834 180 853 180 c 2
 1457 180 l 1
 1457 0 l 1
 1338 0 l 1
 1365 -55 1366 -86 1366 -114 c 0
 1366 -347 1107 -519 720 -519 c 0
 304 -519 99 -326 99 61 c 0
 99 169 123 322 170 428 c 1
 324 365 l 1
EndSplineSet
Validated: 1
EndChar

StartChar: uniFECC.compact
Encoding: 65579 -1 324
Width: 1071
VWidth: 2950
Flags: HW
AnchorPoint: "Anchor-7" 574.511 -237.021 basechar 0
AnchorPoint: "Anchor-10" 598.107 1100.89 basechar 0
LayerCount: 2
Fore
SplineSet
743 230 m 1
 805 194 892 180 1045 180 c 2
 1091 180 l 5
 1091 0 l 5
 1045 0 l 2
 842 0 714 50 607 123 c 1
 505 52 359 0 87 0 c 2
 -20 0 l 1
 -20 180 l 1
 90 180 l 2
 292 180 407 193 459 230 c 1
 275 339 167 439 167 559 c 0
 167 716 399 776 607 776 c 0
 801 776 1040 716 1040 559 c 0
 1040 463 930 343 743 230 c 1
604 330 m 1
 693 379 862 481 862 536 c 0
 862 580 774 602 604 602 c 0
 435 602 345 582 345 536 c 0
 345 481 498 383 604 330 c 1
EndSplineSet
Validated: 1
EndChar

StartChar: uniFEEE.compact
Encoding: 65581 -1 327
Width: 876
VWidth: 2142
Flags: HW
AnchorPoint: "Anchor-10" 430.256 1030.2 basechar 0
AnchorPoint: "Anchor-7" 415.969 -619.998 basechar 0
LayerCount: 2
Fore
SplineSet
432 720 m 0
 641 720 755 541 779 180 c 1
 896 180 l 1
 896 0 l 1
 767 0 l 1
 716 -274 518 -461 168 -528 c 1
 108 -374 l 1
 396 -320 561 -183 611 0 c 1
 462 0 l 2
 219 0 98 98 98 296 c 0
 98 523 237 720 432 720 c 0
616 180 m 1
 601 414 537 535 418 535 c 0
 328 535 263 426 263 311 c 0
 263 224 327 180 452 180 c 2
 616 180 l 1
EndSplineSet
Validated: 1
EndChar

StartChar: figuredash
Encoding: 8210 8210 329
Width: 1170
Flags: HW
LayerCount: 2
Fore
SplineSet
1003 651 m 1
 168 651 l 1
 168 782 l 5
 1003 782 l 5
 1003 651 l 1
EndSplineSet
Validated: 1
EndChar

StartChar: NameMe.65583
Encoding: 65583 -1 340
Width: 465
VWidth: 2703
Flags: HW
AnchorPoint: "Anchor-1" 243.295 1210.37 mark 0
AnchorPoint: "Anchor-1" 266.134 1673.4 basemark 0
AnchorPoint: "Anchor-9" 243.295 1210.37 mark 0
AnchorPoint: "Anchor-10" 243.295 1210.37 mark 0
LayerCount: 2
Fore
SplineSet
202.120117188 1333.0703125 m 2
 372.259765625 1333.0703125 428.740234375 1348.79003906 428.740234375 1422.11035156 c 0
 428.740234375 1473.34082031 391.610351562 1512.35058594 337.08984375 1512.35058594 c 0
 264.709960938 1512.35058594 216.219726562 1462.79003906 132.559570312 1332.60058594 c 1
 202.120117188 1333.0703125 l 2
-44.759765625 1315.20996094 m 1
 -27.83984375 1396.52050781 l 25
 -27.83984375 1396.52050781 14.1201171875 1357.98046875 45.1396484375 1346.23046875 c 1
 152.299804688 1526.70996094 228.049804688 1597.890625 333.330078125 1597.890625 c 0
 439.080078125 1597.890625 512.400390625 1525.04003906 512.400390625 1426.34082031 c 0
 511.9296875 1294.27050781 429.599609375 1248 204 1248 c 2
 180.030273438 1248 l 2
 62.0595703125 1248 -16.08984375 1269.15039062 -44.759765625 1315.20996094 c 1
EndSplineSet
EndChar

StartChar: uni06CD
Encoding: 1741 1741 352
Width: 1681
VWidth: 2950
Flags: HW
AnchorPoint: "Anchor-7" 920.902 -676.086 basechar 0
AnchorPoint: "Anchor-10" 848.6 936.22 basechar 0
LayerCount: 2
Fore
SplineSet
354 362 m 1
 58 243 l 5
 94 412 l 29
 410 538 l 1
 565 475 l 1
 504 326 473 203 473 82 c 0
 473 -190 625 -327 928 -328 c 0
 1162 -328 1421 -226 1421 -42 c 0
 1421 7 1364.05664062 16 1322 16 c 2
 1178 16 l 2
 1017.20703125 16 932 101 932 263 c 0
 932 533.663085938 1153.66894531 706.53515625 1395.55859375 706.53515625 c 0
 1433.61230469 706.53515625 1504 705 1576 675 c 1
 1544 510 l 1
 1486 528 1435.02148438 531.233398438 1395.96875 531.233398438 c 0
 1218.14355469 531.233398438 1101 398.296875 1101 276 c 0
 1101 217 1116 192 1188 192 c 2
 1368 192 l 2
 1509.2890625 191.411132812 1583 110 1583 -2 c 0
 1583 -321 1315 -499 923 -499 c 0
 509 -499 302 -307 302 79 c 0
 302 181.772460938 316.28515625 247.165039062 354 362 c 1
EndSplineSet
Substitution2: "'fina' Terminal Forms in Arabic lookup 1 subtable" uni06CD.fina
EndChar

StartChar: uni06CD.compact
Encoding: 65585 -1 353
Width: 1677
VWidth: 2703
Flags: HW
AnchorPoint: "Anchor-7" 958.902 -698.086 basechar 0
AnchorPoint: "Anchor-10" 921.6 653.22 basechar 0
LayerCount: 2
Fore
SplineSet
58 133 m 29
 94 302 l 29
 410 428 l 5
 564 365 l 5
 528 265 510 164 510 60 c 0
 510 -210 660 -347 959 -347 c 0
 1197 -347 1444 -242 1444 -107 c 0
 1444 -48 1388 0 1280 0 c 2
 1157 0 l 2
 1118 0 1100 27 1092 62 c 2
 1070 154 l 2
 1066 172 1074 180 1093 180 c 2
 1697 180 l 1
 1697 0 l 1
 1578 0 l 1
 1605 -55 1606 -86 1606 -114 c 0
 1606 -347 1347 -519 960 -519 c 0
 544 -519 339 -326 339 61 c 0
 339 126.323242188 347.780273438 178.108398438 365.119140625 256 c 5
 58 133 l 29
EndSplineSet
EndChar

StartChar: NameMe.65587
Encoding: 65587 -1 355
Width: 504
VWidth: 2682
Flags: HW
LayerCount: 2
Fore
SplineSet
244.5 122.5 m 1
 104.5 262.5 l 1
 244.5 403.5 l 1
 386.5 262.5 l 1
 244.5 122.5 l 1
244.5 -159.5 m 5
 104.5 -19.5 l 5
 244.5 121.5 l 5
 386.5 -19.5 l 5
 244.5 -159.5 l 5
EndSplineSet
EndChar

StartChar: uni06D2
Encoding: 1746 1746 385
Width: 1744
VWidth: 0
Flags: HW
AnchorPoint: "Anchor-7" 881.902 -180.086 basechar 0
AnchorPoint: "Anchor-10" 585.53 1100.1 basechar 0
LayerCount: 2
Fore
SplineSet
791 453 m 1
 736 525 669 626 591 696 c 1
 526 602 512.875976562 567.180664062 443 483 c 0
 316 330 271 330.073242188 271 299 c 0
 271 221.163085938 530.014648438 170.009765625 807.669921875 170.009765625 c 0
 1233.53125 170.009765625 1640 237 1640 237 c 1
 1646 59 l 1
 1646 59 1235.06835938 0.67578125 810.045898438 0.67578125 c 0
 494.517578125 0.67578125 98 39.01171875 98 283 c 0
 98 421.110351562 220 450 340 605 c 0
 483.21875 789.990234375 489.354492188 872 584 872 c 0
 703.002929688 872 871 624 908 556 c 1
 791 453 l 1
EndSplineSet
Position2: "Single Positioning lookup 2 subtable" dx=0 dy=0 dh=-120 dv=0
Position2: "Single Positioning lookup 1 subtable" dx=0 dy=0 dh=-120 dv=0
Substitution2: "'fina' Terminal Forms in Arabic lookup 1 subtable" uniFBAF
EndChar

StartChar: uni06D4
Encoding: 1748 1748 387
Width: 632
VWidth: 2950
Flags: HW
LayerCount: 2
Fore
SplineSet
98 0 m 1
 98 180 l 1
 534 180 l 5
 534 0 l 5
 98 0 l 1
EndSplineSet
EndChar

StartChar: uniFBA7
Encoding: 64423 64423 388
Width: 919
VWidth: 2950
Flags: HW
AnchorPoint: "Anchor-10" 465.28 894.77 basechar 0
AnchorPoint: "Anchor-7" 442.251 -206.396 basechar 0
LayerCount: 2
Fore
SplineSet
244 -20 m 5
 98 16 l 5
 130 348 321.24609375 605 479 605 c 4
 735 605 678 180 906 180 c 6
 939 180 l 6
 939 0 l 6
 907 0 l 6
 575.303710938 0 582.291015625 402 482 402 c 4
 401.05859375 402 278 238 244 -20 c 5
EndSplineSet
EndChar

StartChar: uniFBA9
Encoding: 64425 64425 390
Width: 1002
Flags: HW
AnchorPoint: "Anchor-7" 604.251 -707.396 basechar 0
AnchorPoint: "Anchor-10" 483.28 834.77 basechar 0
LayerCount: 2
Fore
SplineSet
221 50 m 1
 151 16 111 -8.3275982342e-15 43 0 c 2
 -20 0 l 1
 -20 180 l 1
 45 180 l 2
 213 180 260 235.333007812 376 344 c 1
 486 222 l 1
 461.100585938 200 l 2
 279.4609375 39.5087890625 428.202271715 -227.92755166 585 -321 c 5
 585 -7 718 180 988 180 c 2
 1022 180 l 1
 1022 0 l 1
 986 0 l 2
 817 0 733 -110 733 -330 c 4
 733 -358 734 -391 737 -422 c 5
 616 -540 l 5
 389 -432 229 -236 221 50 c 1
EndSplineSet
EndChar

StartChar: uniFBAA
Encoding: 64426 64426 391
Width: 1487
VWidth: 2703
Flags: HW
AnchorPoint: "Anchor-10" 727.134 1222.79 basechar 0
AnchorPoint: "Anchor-7" 628.852 -239.953 basechar 0
LayerCount: 2
Fore
SplineSet
47 180 m 5
 119 180 l 5
 119 0 l 5
 95 0 l 5
 47 180 l 5
EndSplineSet
Refer: 246 65259 N 1 0 0 1 118 0 2
EndChar

StartChar: uniFBAB
Encoding: 64427 64427 392
Width: 1120
VWidth: 2703
Flags: HW
AnchorPoint: "Anchor-10" 619.648 1135.04 basechar 0
AnchorPoint: "Anchor-7" 665.16 -709.603 basechar 0
LayerCount: 2
Fore
SplineSet
47 180 m 1
 119 180 l 1
 119 0 l 1
 95 0 l 1
 47 180 l 1
EndSplineSet
Refer: 247 65260 N 1 0 0 1 118 0 2
EndChar

StartChar: uni0658
Encoding: 1624 1624 397
Width: 0
VWidth: 2316
Flags: HW
AnchorPoint: "Anchor-7" 711.902 -612.086 basechar 0
AnchorPoint: "Anchor-10" 603.219 1239.43 mark 0
AnchorPoint: "Anchor-9" 603.219 1239.43 mark 0
AnchorPoint: "Anchor-1" 598.537 1560.66 basemark 0
AnchorPoint: "Anchor-1" 603.219 1239.43 mark 0
LayerCount: 2
Fore
SplineSet
837.48149039 1539 m 1
 823.810383051 1390.51188759 743.578397087 1272.1953125 591.306640625 1272.1953125 c 0
 438.4558688 1272.1953125 358.698481377 1391.65935068 345.132757726 1539 c 1
 445.584259067 1539 l 1
 458.693082578 1442.37612903 495.704950144 1374.0703125 591.306640625 1374.0703125 c 0
 687.646294597 1374.0703125 722.626016364 1443.92248771 735.277503396 1539 c 1
 837.48149039 1539 l 1
EndSplineSet
EndChar

StartChar: uniFBC0
Encoding: 64448 64448 398
Width: 0
VWidth: 2712
Flags: HW
AnchorPoint: "Anchor-10" 674.729 1661.91 mark 0
AnchorPoint: "Anchor-9" 674.729 1661.91 mark 0
AnchorPoint: "Anchor-1" 673.079 2352.57 basemark 0
AnchorPoint: "Anchor-1" 674.729 1661.91 mark 0
LayerCount: 2
Fore
SplineSet
640.528033814 1832.54980469 m 2
 805.805533978 1832.54980469 872.275390625 1868.10483462 872.275390625 1922.95019531 c 0
 872.275390625 1964.60733801 843.278379833 1995.34960938 798.525390625 1995.34960938 c 0
 741.866926425 1995.34960938 673.131314821 1940.11262139 600.084423199 1832.27659591 c 1
 640.528033814 1832.54980469 l 2
484.722285701 1831.65039062 m 1
 494.296400732 1847.04911758 503.706990135 1861.78878913 511.375 1873.90381756 c 1
 511.375 2297.34960938 l 5
 511.375 2306.34960938 l 5
 511.375 2311.34960938 l 5
 516.375 2311.34960938 l 5
 525.375 2311.34960938 l 5
 601.424804688 2311.34960938 l 5
 610.424804688 2311.34960938 l 5
 615.424804688 2311.34960938 l 5
 615.424804688 2306.34960938 l 5
 615.424804688 2297.34960938 l 5
 615.424804688 2015.15240966 l 1
 671.154898665 2073.91521406 729.106070731 2104.79980469 794.474609375 2104.79980469 c 0
 903.619204841 2104.79980469 980.375 2029.35075286 980.375 1926.49978003 c 0
 979.387813223 1787.83684309 858.902880607 1722.65039062 642.375 1722.65039062 c 2
 392.625 1722.65039062 l 1
 383.625 1722.65039062 l 1
 378.625 1722.65039062 l 1
 378.625 1727.65039062 l 1
 378.625 1736.65039062 l 1
 378.625 1817.65039062 l 1
 378.625 1826.65039062 l 1
 378.625 1831.65039062 l 1
 383.625 1831.65039062 l 1
 392.625 1831.65039062 l 1
 484.722285701 1831.65039062 l 1
EndSplineSet
EndChar

StartChar: uniFBBF
Encoding: 64447 64447 403
Width: 0
VWidth: 0
Flags: HW
LayerCount: 2
Fore
SplineSet
116 387 m 4
 116 335 158 294 210 294 c 4
 262 294 303 335 303 387 c 4
 303 439 262 481 210 481 c 4
 158 481 116 439 116 387 c 4
28 387 m 4
 28 487 110 569 210 569 c 4
 310 569 392 487 392 387 c 4
 392 287 310 205 210 205 c 4
 110 205 28 287 28 387 c 4
EndSplineSet
EndChar

StartChar: uniFBAF.compact
Encoding: 65613 -1 408
Width: 1207
VWidth: 2950
Flags: HW
AnchorPoint: "Anchor-7" 802.902 -632.086 basechar 0
AnchorPoint: "Anchor-10" 756.53 519.1 basechar 0
LayerCount: 2
Fore
SplineSet
656 0 m 2
 443 0 271 -144.284193595 271 -171 c 0
 271 -248.836914062 530.014648438 -299.990234375 807.669921875 -299.990234375 c 0
 1173.53125 -299.990234375 1360 -232 1360 -232 c 1
 1398 -398 l 1
 1398 -398 1155.06835938 -469.32421875 810.045898438 -469.32421875 c 0
 494.517578125 -469.32421875 98 -430.98828125 98 -187 c 0
 98 -31.3802668152 379.015625 180 660 180 c 6
 1227 180 l 1
 1227 0 l 1
 656 0 l 2
EndSplineSet
EndChar

StartChar: uni06F4.urdu
Encoding: 65615 -1 412
Width: 1246
VWidth: 2950
Flags: HW
LayerCount: 2
Fore
SplineSet
207 1111 m 0
 207 1236.54589844 279.219726562 1316.71191406 396.576171875 1316.71191406 c 0
 615.078125 1316.71191406 784 1123 855 892 c 1
 879 1046 931 1208 991 1317 c 1
 1146 1233 l 1
 1049 1100 989 945 949 709 c 1
 786 709 l 1
 684.723632812 984.161132812 532.805664062 1141.33105469 437.58203125 1141.33105469 c 0
 393.237304688 1141.33105469 378.9765625 1124.65820312 378.9765625 1079.87304688 c 0
 378.9765625 993.912109375 477 797.882729711 477 245 c 2
 477 0 l 1
 307 0 l 1
 307 248 l 2
 307 796.104700888 207 975.091796875 207 1111 c 0
EndSplineSet
EndChar

StartChar: uni06F7.urdu
Encoding: 65616 -1 413
Width: 1056
VWidth: 2950
Flags: HW
LayerCount: 2
Fore
SplineSet
110 0 m 1
 110 350 466 956 792 1302 c 1
 922 1180 l 1
 576 856 332 386 300 180 c 1
 956 180 l 1
 956 0 l 1
 110 0 l 1
EndSplineSet
EndChar

StartChar: uni06E9
Encoding: 1769 1769 418
Width: 1180
VWidth: 0
Flags: HW
LayerCount: 2
Fore
SplineSet
497.229492188 55.3603515625 m 1
 534.3203125 82.6328125 l 1
 534.3203125 678.62890625 l 1
 393.650390625 819.298828125 l 1
 590 1015.6484375 l 1
 786.349609375 819.298828125 l 1
 645.6796875 678.62890625 l 1
 645.6796875 82.6328125 l 1
 682.770507812 55.3603515625 l 1
 497.229492188 55.3603515625 l 1
506.788085938 819.298828125 m 1
 590 736.086914062 l 1
 673.211914062 819.298828125 l 1
 590 902.51171875 l 1
 506.788085938 819.298828125 l 1
223.9453125 819.298828125 m 1
 414.3203125 628.923828125 l 1
 414.3203125 143.345703125 l 1
 211.51953125 -5.7734375 l 1
 211.51953125 -64.6396484375 l 1
 968.48046875 -64.6396484375 l 1
 968.48046875 -5.7734375 l 1
 765.6796875 143.345703125 l 1
 765.6796875 628.923828125 l 1
 956.0546875 819.298828125 l 1
 590 1185.35449219 l 1
 223.9453125 819.298828125 l 1
110.80859375 819.298828125 m 1
 590 1298.49121094 l 1
 1069.19140625 819.298828125 l 1
 845.6796875 595.787109375 l 1
 845.6796875 183.8203125 l 1
 1048.48046875 34.701171875 l 1
 1048.48046875 -144.639648438 l 1
 131.51953125 -144.639648438 l 1
 131.51953125 34.701171875 l 1
 334.3203125 183.8203125 l 1
 334.3203125 595.787109375 l 1
 110.80859375 819.298828125 l 1
EndSplineSet
EndChar

StartChar: uni06DE
Encoding: 1758 1758 419
Width: 1990
VWidth: 0
Flags: HW
LayerCount: 2
Fore
SplineSet
440.599609375 241.9453125 m 5
 440.599609375 20.140625 l 5
 662.404296875 20.140625 l 5
 440.599609375 241.9453125 l 5
738.544921875 -56 m 5
 365 -56 l 5
 365 317.544921875 l 5
 100.86328125 581.681640625 l 5
 365 845.818359375 l 5
 365 1213 l 5
 732.181640625 1213 l 5
 991.818359375 1472.63671875 l 5
 1251.45507812 1213 l 5
 1625 1213 l 5
 1625 839.455078125 l 5
 1889.13671875 575.318359375 l 5
 1625 311.181640625 l 5
 1625 -56 l 5
 1257.81835938 -56 l 5
 998.181640625 -315.63671875 l 5
 738.544921875 -56 l 5
1333.95898438 20.140625 m 5
 1549.40039062 20.140625 l 5
 1549.40039062 235.58203125 l 5
 1333.95898438 20.140625 l 5
1549.40039062 915.0546875 m 5
 1549.40039062 1136.859375 l 5
 1327.59570312 1136.859375 l 5
 1549.40039062 915.0546875 l 5
440.599609375 921.41796875 m 5
 656.041015625 1136.859375 l 5
 440.599609375 1136.859375 l 5
 440.599609375 921.41796875 l 5
440.599609375 813.739257812 m 5
 440.599609375 348.860351562 l 5
 769.319335938 20.140625 l 5
 1226.28027344 20.140625 l 5
 1549.40039062 343.260742188 l 5
 1549.40039062 808.139648438 l 5
 1220.68066406 1136.859375 l 5
 763.719726562 1136.859375 l 5
 440.599609375 813.739257812 l 5
839.860351562 1213 m 5
 1144.54003906 1213 l 5
 992.200195312 1365.33984375 l 5
 839.860351562 1213 l 5
365 738.139648438 m 5
 208.16015625 581.299804688 l 5
 365 424.459960938 l 5
 365 738.139648438 l 5
1625 732.540039062 m 5
 1625 418.860351562 l 5
 1781.83984375 575.700195312 l 5
 1625 732.540039062 l 5
1150.13964844 -56 m 5
 845.459960938 -56 l 5
 997.799804688 -208.33984375 l 5
 1150.13964844 -56 l 5
901 575 m 4
 901 523 943 482 995 482 c 4
 1047 482 1088 523 1088 575 c 4
 1088 627 1047 669 995 669 c 4
 943 669 901 627 901 575 c 4
822 575 m 4
 822 670 900 748 995 748 c 4
 1090 748 1168 670 1168 575 c 4
 1168 480 1090 402 995 402 c 4
 900 402 822 480 822 575 c 4
EndSplineSet
EndChar

StartChar: uni06DD
Encoding: 1757 1757 420
Width: 2440
VWidth: 0
Flags: HW
LayerCount: 2
Fore
SplineSet
284 1362 m 4
 284 1466 369 1551 473 1551 c 4
 510.340820312 1551 545.232421875 1540.04199219 574.620117188 1521.18164062 c 5
 756.484375 1651.37207031 979.299804688 1728 1220 1728 c 4
 1459.87207031 1728 1681.98242188 1651.8984375 1863.50097656 1522.5234375 c 5
 1892.44042969 1540.56054688 1926.55371094 1551 1963 1551 c 4
 2067 1551 2152 1466 2152 1362 c 4
 2152 1325.64355469 2141.61230469 1291.60839844 2123.65625 1262.71582031 c 5
 2253.55859375 1080.97363281 2330 858.407226562 2330 618 c 4
 2330 377.796875 2253.68847656 155.40625 2123.98828125 -26.2509765625 c 5
 2141.74023438 -55.029296875 2152 -88.8681640625 2152 -125 c 4
 2152 -229 2067 -314 1963 -314 c 4
 1926.86816406 -314 1893.02929688 -303.740234375 1864.25097656 -285.98828125 c 5
 1682.59375 -415.688476562 1460.203125 -492 1220 -492 c 4
 978.973632812 -492 755.881835938 -415.1640625 573.881835938 -284.65234375 c 5
 544.649414062 -303.224609375 510.029296875 -314 473 -314 c 4
 369 -314 284 -229 284 -125 c 4
 284 -87.6123046875 294.985351562 -52.6796875 313.889648438 -23.2685546875 c 5
 185.479492188 157.836914062 110 379.110351562 110 618 c 4
 110 857.099609375 185.612304688 1078.55078125 314.227539062 1259.74511719 c 5
 295.116210938 1289.26464844 284 1324.38964844 284 1362 c 4
1849.59960938 -125 m 4
 1849.59960938 -187.400390625 1900.59960938 -238.400390625 1963 -238.400390625 c 4
 2025.40039062 -238.400390625 2076.40039062 -187.400390625 2076.40039062 -125 c 4
 2076.40039062 -62.599609375 2025.40039062 -11.599609375 1963 -11.599609375 c 4
 1900.59960938 -11.599609375 1849.59960938 -62.599609375 1849.59960938 -125 c 4
359.599609375 -125 m 4
 359.599609375 -187.400390625 410.599609375 -238.400390625 473 -238.400390625 c 4
 535.400390625 -238.400390625 586.400390625 -187.400390625 586.400390625 -125 c 4
 586.400390625 -62.599609375 535.400390625 -11.599609375 473 -11.599609375 c 4
 410.599609375 -11.599609375 359.599609375 -62.599609375 359.599609375 -125 c 4
1849.59960938 1362 m 4
 1849.59960938 1299.59960938 1900.59960938 1248.59960938 1963 1248.59960938 c 4
 2025.40039062 1248.59960938 2076.40039062 1299.59960938 2076.40039062 1362 c 4
 2076.40039062 1424.40039062 2025.40039062 1475.40039062 1963 1475.40039062 c 4
 1900.59960938 1475.40039062 1849.59960938 1424.40039062 1849.59960938 1362 c 4
359.599609375 1362 m 4
 359.599609375 1299.59960938 410.599609375 1248.59960938 473 1248.59960938 c 4
 535.400390625 1248.59960938 586.400390625 1299.59960938 586.400390625 1362 c 4
 586.400390625 1424.40039062 535.400390625 1475.40039062 473 1475.40039062 c 4
 410.599609375 1475.40039062 359.599609375 1424.40039062 359.599609375 1362 c 4
1774.12890625 1355 m 5
 661.87109375 1355 l 5
 658.16015625 1254.21289062 574.657226562 1173 473 1173 c 4
 446.948242188 1173 422.087890625 1178.33398438 399.458007812 1187.96386719 c 5
 286.958007812 1026.31542969 221 829.854492188 221 618 c 4
 221 406.481445312 286.749023438 210.309570312 398.921875 48.806640625 c 5
 421.6953125 58.58203125 446.7421875 64 473 64 c 4
 573.30859375 64 655.94140625 -15.0732421875 661.681640625 -114 c 5
 1774.31835938 -114 l 5
 1780.05859375 -15.0732421875 1862.69140625 64 1963 64 c 4
 1990.44042969 64 2016.55761719 58.0830078125 2040.140625 47.4599609375 c 5
 2152.88476562 209.217773438 2219 405.893554688 2219 618 c 4
 2219 830.439453125 2152.67675781 1027.39941406 2039.609375 1189.30175781 c 5
 2016.16601562 1178.82910156 1990.234375 1173 1963 1173 c 4
 1861.34277344 1173 1777.83984375 1254.21289062 1774.12890625 1355 c 5
1777.61425781 1447 m 5
 1618.35351562 1554.34082031 1426.48925781 1617 1220 1617 c 4
 1013.51074219 1617 821.646484375 1554.34082031 662.385742188 1447 c 5
 1777.61425781 1447 l 5
655.038085938 -206 m 5
 815.73046875 -316.392578125 1010.32519531 -381 1220 -381 c 4
 1429.67480469 -381 1624.26953125 -316.392578125 1784.96191406 -206 c 5
 655.038085938 -206 l 5
EndSplineSet
EndChar

StartChar: uniFD3E
Encoding: 64830 64830 421
Width: 1273
Flags: HW
LayerCount: 2
Fore
SplineSet
607 603 m 0
 607 566 639 535 677 535 c 0
 716 535 747 566 747 607 c 0
 747 644 713 674 676 674 c 0
 635 674 607 640 607 603 c 0
630 202 m 0
 668 30 753 -108 884 -213 c 1
 812 -79 765 61 742 204 c 0
 739 221 744 234 756 246 c 2
 791 281 l 2
 800 290 812 296 826 296 c 2
 987 296 l 1
 987 916 l 1
 826 916 l 2
 812 916 800 922 791 931 c 2
 753 969 l 2
 741 980 737 995 740 1011 c 0
 767 1182 819 1337 895 1477 c 1
 753 1367 662 1209 622 1002 c 0
 620 992 615 984 608 977 c 2
 562 931 l 2
 553 922 542 916 528 916 c 2
 366 916 l 1
 366 755 l 2
 366 741 361 730 352 721 c 2
 237 606 l 1
 352 491 l 2
 361 482 366 471 366 457 c 2
 366 296 l 1
 528 296 l 2
 542 296 553 290 562 281 c 2
 617 226 l 2
 624 219 628 210 630 202 c 0
833 599 m 0
 833 516 759 446 676 446 c 0
 587 446 519 519 519 609 c 0
 519 692 593 762 676 762 c 0
 765 762 833 689 833 599 c 0
1093 1575 m 1
 968 1461 883 1275 839 1019 c 1
 845 1013 l 1
 1036 1013 l 2
 1068 1013 1084 994 1084 965 c 2
 1084 247 l 1
 1083 215 1067 199 1036 199 c 2
 845 199 l 1
 842 196 l 1
 888 -49 972 -217 1090 -315 c 0
 1125 -344 1100 -372 1047 -400 c 1
 779 -321 610 -131 539 167 c 1
 508 199 l 1
 317 199 l 2
 295 199 269 218 269 247 c 2
 269 437 l 1
 135 572 l 2
 126 581 120 594 120 607 c 0
 120 619 125 630 135 640 c 2
 269 775 l 1
 269 965 l 2
 269 995 297 1013 317 1013 c 2
 508 1013 l 1
 529 1035 l 1
 595 1367 769 1575 1047 1657 c 1
 1084 1671 1107 1626 1093 1575 c 1
EndSplineSet
EndChar

StartChar: uniFD3F
Encoding: 64831 64831 422
Width: 1273
Flags: HW
LayerCount: 2
Fore
SplineSet
666 603 m 4
 666 640 638 674 597 674 c 4
 560 674 526 644 526 607 c 4
 526 566 557 535 596 535 c 4
 634 535 666 566 666 603 c 4
643 202 m 4
 645 210 649 219 656 226 c 6
 711 281 l 6
 720 290 731 296 745 296 c 6
 907 296 l 5
 907 457 l 6
 907 471 912 482 921 491 c 6
 1036 606 l 5
 921 721 l 6
 912 730 907 741 907 755 c 6
 907 916 l 5
 745 916 l 6
 731 916 720 922 711 931 c 6
 665 977 l 6
 658 984 653 992 651 1002 c 4
 611 1209 520 1367 378 1477 c 5
 454 1337 506 1182 533 1011 c 4
 536 995 532 980 520 969 c 6
 482 931 l 6
 473 922 461 916 447 916 c 6
 286 916 l 5
 286 296 l 5
 447 296 l 6
 461 296 473 290 482 281 c 6
 517 246 l 6
 529 234 534 221 531 204 c 4
 508 61 461 -79 389 -213 c 5
 520 -108 605 30 643 202 c 4
440 599 m 4
 440 689 508 762 597 762 c 4
 680 762 754 692 754 609 c 4
 754 519 686 446 597 446 c 4
 514 446 440 516 440 599 c 4
180 1575 m 5
 166 1626 189 1671 226 1657 c 5
 504 1575 678 1367 744 1035 c 5
 765 1013 l 5
 956 1013 l 6
 976 1013 1004 995 1004 965 c 6
 1004 775 l 5
 1138 640 l 6
 1148 630 1153 619 1153 607 c 4
 1153 594 1147 581 1138 572 c 6
 1004 437 l 5
 1004 247 l 6
 1004 218 978 199 956 199 c 6
 765 199 l 5
 734 167 l 5
 663 -131 494 -321 226 -400 c 5
 173 -372 148 -344 183 -315 c 4
 301 -217 385 -49 431 196 c 5
 428 199 l 5
 237 199 l 6
 206 199 190 215 189 247 c 5
 189 965 l 6
 189 994 205 1013 237 1013 c 6
 428 1013 l 5
 434 1019 l 5
 390 1275 305 1461 180 1575 c 5
EndSplineSet
EndChar

StartChar: uni0610
Encoding: 1552 1552 423
Width: 0
VWidth: 2712
Flags: HW
AnchorPoint: "Anchor-10" 493.924 1223.86 mark 0
AnchorPoint: "Anchor-9" 493.924 1223.86 mark 0
AnchorPoint: "Anchor-1" 534.091 1760.26 basemark 0
AnchorPoint: "Anchor-1" 493.924 1223.86 mark 0
LayerCount: 2
Fore
SplineSet
457.979492188 1367.40527344 m 6
 640.790039062 1367.40527344 733.709960938 1405.78515625 733.709960938 1484.56542969 c 4
 733.709960938 1539.61035156 693.814453125 1581.52539062 635.234375 1581.52539062 c 4
 557.46484375 1581.52539062 473.129882812 1506.78515625 383.239257812 1366.90039062 c 5
 457.979492188 1367.40527344 l 6
136.724609375 1192.40136719 m 5
 156.758789062 1227.19335938 166.916015625 1271.89257812 167.099609375 1326.5 c 4
 167.099609375 1388.61523438 151.444335938 1450.73046875 121.649414062 1512.84570312 c 5
 206.994140625 1542.13574219 l 5
 236.790039062 1449.72070312 l 6
 250.9296875 1406.29003906 267.594726562 1384.0703125 289.309570312 1381.54492188 c 5
 403.944335938 1576.47558594 516.559570312 1673.43554688 632.205078125 1673.43554688 c 4
 742.799804688 1673.43554688 823.599609375 1593.140625 823.599609375 1489.11035156 c 4
 823.094726562 1347.20507812 702.399414062 1276 460 1276 c 6
 434.244140625 1276 l 6
 348.899414062 1276 289.309570312 1286.10058594 250.424804688 1304.78515625 c 5
 249.607421875 1241.69824219 236.307617188 1188.92675781 212.26953125 1146.40039062 c 5
 136.724609375 1192.40136719 l 5
EndSplineSet
EndChar

StartChar: uni0611
Encoding: 1553 1553 424
Width: 0
VWidth: 2712
Flags: HW
AnchorPoint: "Anchor-10" 496.924 1247.86 mark 0
AnchorPoint: "Anchor-9" 496.924 1247.86 mark 0
AnchorPoint: "Anchor-1" 534.091 1790.26 basemark 0
AnchorPoint: "Anchor-1" 496.924 1247.86 mark 0
LayerCount: 2
Fore
SplineSet
253.954101562 1275.18554688 m 5
 252.548828125 1227.18554688 236.431640625 1179.32714844 212.393554688 1136.80078125 c 5
 136.848632812 1182.80175781 l 5
 156.8828125 1217.59375 167.040039062 1262.29296875 167.223632812 1316.90039062 c 4
 167.223632812 1379.015625 151.568359375 1441.13085938 121.7734375 1503.24609375 c 5
 207.118164062 1532.53613281 l 5
 236.9140625 1440.12109375 l 6
 250.9296875 1396.65039062 267.71875 1374.47070312 289.43359375 1371.9453125 c 5
 384.038085938 1372.20605469 l 5
 353.852539062 1410.47558594 326.903320312 1450.36035156 326.903320312 1515.58007812 c 4
 326.903320312 1639.55078125 412.604492188 1743.57714844 550.048828125 1743.57714844 c 4
 626.047851562 1743.57714844 686.416992188 1718.78320312 734.926757812 1669.734375 c 5
 699.352539062 1590.50097656 l 5
 654.615234375 1626.61425781 611.495117188 1644.94042969 567.297851562 1645.47949219 c 4
 481.057617188 1645.47949219 418.533203125 1586.72851562 418.533203125 1512.34570312 c 4
 418.533203125 1491.86425781 428.774414062 1429.34082031 501 1397 c 4
 505.3125 1394.84375 513.936523438 1391.61035156 520.943359375 1393.2265625 c 6
 751.635742188 1451.43945312 l 5
 751.635742188 1354.41894531 l 5
 580.233398438 1301.05761719 433.548828125 1275.18554688 290.548828125 1275.18554688 c 6
 253.954101562 1275.18554688 l 5
EndSplineSet
EndChar

StartChar: uni0612
Encoding: 1554 1554 425
Width: 0
VWidth: 2712
Flags: HW
AnchorPoint: "Anchor-10" 517.924 962.86 mark 0
AnchorPoint: "Anchor-9" 517.924 962.86 mark 0
AnchorPoint: "Anchor-1" 522.091 1913.26 basemark 0
AnchorPoint: "Anchor-1" 517.924 962.86 mark 0
LayerCount: 2
Fore
SplineSet
461.255859375 997.858398438 m 4
 239.827148438 997.858398438 86.7412109375 1088.06933594 86.7412109375 1285.44238281 c 4
 86.7412109375 1461.49121094 226.158203125 1609.65722656 489.686523438 1668.70507812 c 5
 476.017578125 1674.17285156 470.549804688 1676.359375 439.93359375 1688.93457031 c 4
 366.123046875 1718.45800781 319.104492188 1737.59375 293.407226562 1737.59375 c 4
 251.85546875 1737.59375 210.303710938 1710.25683594 183.512695312 1675.265625 c 6
 168.750976562 1656.12988281 l 5
 86.193359375 1697.13574219 l 5
 94.39453125 1711.35058594 l 6
 140.3203125 1786.25390625 211.396484375 1834.91308594 293.954101562 1834.91308594 c 4
 339.879882812 1834.91308594 395.100585938 1813.59082031 459.615234375 1782.42578125 c 4
 572.790039062 1727.20605469 641.131835938 1703.69628906 704.0078125 1700.41601562 c 5
 696.900390625 1607.46972656 l 5
 405.489257812 1583.9609375 177.499023438 1458.7578125 177.499023438 1294.18945312 c 4
 177.499023438 1158.59863281 274.818359375 1091.35058594 468.909179688 1091.35058594 c 4
 461.255859375 997.858398438 l 4
877.640625 1606.37695312 m 5
 907.1640625 1533.11425781 922.47265625 1454.38378906 922.47265625 1392.05566406 c 4
 922.47265625 1194.13671875 807.111328125 1073.30761719 576.934570312 1029.56933594 c 5
 544.130859375 1113.76660156 l 5
 734.39453125 1149.85058594 830.07421875 1241.703125 831.16796875 1389.32226562 c 4
 831.16796875 1439.07519531 816.952148438 1509.05761719 789.068359375 1574.66601562 c 5
 877.640625 1606.37695312 l 5
EndSplineSet
EndChar

StartChar: uni06DC
Encoding: 1756 1756 426
Width: 0
VWidth: 2712
Flags: HW
AnchorPoint: "Anchor-10" 556.924 1187.86 mark 0
AnchorPoint: "Anchor-9" 556.924 1187.86 mark 0
AnchorPoint: "Anchor-1" 558.091 1694.26 basemark 0
AnchorPoint: "Anchor-1" 556.924 1187.86 mark 0
LayerCount: 2
Fore
SplineSet
498.709960938 1275.60546875 m 4
 459.055664062 1275.60546875 429.190429688 1285.22851562 404.634765625 1304.47460938 c 5
 401.982421875 1116.13378906 286.184570312 1016.77539062 95.5322265625 1016.77539062 c 4
 -111.200195312 1016.77539062 -214.56640625 1112.34375 -214.56640625 1303.47851562 c 4
 -214.56640625 1373.1640625 -199.633789062 1444.34277344 -169.768554688 1517.01367188 c 5
 -92.6171875 1485.65625 l 5
 -116.840820312 1421.61132812 -128.953125 1361.71582031 -128.953125 1305.96777344 c 4
 -128.953125 1170.58007812 -52.9638671875 1102.88574219 99.0166015625 1102.88574219 c 4
 247.677734375 1102.88574219 322.173828125 1177.05078125 322.505859375 1325.37988281 c 4
 322.505859375 1385.44238281 307.57421875 1446.66503906 277.708984375 1509.04980469 c 5
 361.829101562 1537.91992188 l 5
 391.1953125 1446.83105469 l 6
 408.6484375 1392.69921875 441.966796875 1365.69726562 499.705078125 1365.20019531 c 4
 565.44140625 1365.20019531 591.7890625 1401.80273438 591.7890625 1469.22949219 c 4
 591.7890625 1485.15722656 590.129882812 1514.69140625 586.811523438 1557.83007812 c 5
 668.940429688 1567.78515625 l 5
 676.904296875 1455.29296875 l 6
 680.388671875 1404.52246094 703.751953125 1365.20019531 755.548828125 1365.20019531 c 4
 800.84375 1365.20019531 824.736328125 1402.36621094 824.736328125 1475.70117188 c 4
 824.736328125 1511.20605469 817.435546875 1555.00878906 802.834960938 1607.10644531 c 5
 886.45703125 1629.50488281 l 5
 902.384765625 1578.73535156 910.348632812 1529.95507812 910.348632812 1483.16699219 c 4
 910.348632812 1369.14746094 869.4765625 1276.10253906 756.046875 1275.60546875 c 4
 698.971679688 1275.60546875 659.151367188 1299.33105469 635.590820312 1346.78320312 c 5
 601.411132812 1299.33105469 555.78515625 1275.60546875 498.709960938 1275.60546875 c 4
EndSplineSet
EndChar

StartChar: uni220E
Encoding: 8718 8718 429
Width: 970
Flags: HW
LayerCount: 2
Fore
SplineSet
200 0 m 1
 200 844 l 1
 770 844 l 5
 770 0 l 5
 200 0 l 1
EndSplineSet
EndChar
